<svg width="140" height="140" viewBox="0 0 140 140" fill="none" xmlns="http://www.w3.org/2000/svg">
<path d="M138.892 54.0749C138.136 52.711 137.029 51.5747 135.685 50.7846C134.341 49.9946 132.809 49.5797 131.25 49.5833H48.335C45.5395 49.5839 42.8197 50.491 40.5836 52.1686C38.3475 53.8462 36.7158 56.2038 35.9333 58.8874L19.5212 115.15C18.6574 118.112 16.8563 120.713 14.3882 122.564C11.9202 124.416 8.91841 125.416 5.83331 125.417H110.098C113.184 125.417 116.186 124.416 118.655 122.565C121.123 120.714 122.925 118.112 123.789 115.15L139.545 61.1333C139.911 59.9726 140.042 58.7505 139.93 57.5386C139.819 56.3267 139.464 55.1492 138.892 54.0749Z" fill="#3F93E6" fill-opacity="0.08"/>
<path d="M13.9125 113.517L30.3333 57.2541C31.4773 53.3646 33.8472 49.9487 37.09 47.5153C40.3328 45.0819 44.2749 43.7612 48.3292 43.7499H122.5V40.8333C122.5 37.7391 121.271 34.7716 119.083 32.5837C116.895 30.3957 113.928 29.1666 110.833 29.1666H66.3717C65.5023 29.1668 64.6439 28.9731 63.8588 28.5998C63.0738 28.2264 62.3818 27.6827 61.8333 27.0083L56.0992 19.9587C54.7335 18.2794 53.0107 16.9257 51.0562 15.9958C49.1017 15.066 46.9645 14.5834 44.8 14.5833H11.6667C8.57247 14.5833 5.60501 15.8124 3.41709 18.0003C1.22916 20.1883 0 23.1557 0 26.2499L0 113.75C0 115.297 0.614582 116.781 1.70854 117.875C2.80251 118.969 4.28624 119.583 5.83333 119.583C7.65407 119.578 9.42443 118.985 10.8804 117.892C12.3364 116.798 13.3999 115.264 13.9125 113.517Z" fill="#3F93E6" fill-opacity="0.08"/>
</svg>
