<svg width="134" height="119" viewBox="0 0 134 119" fill="none" xmlns="http://www.w3.org/2000/svg">
<path fill-rule="evenodd" clip-rule="evenodd" d="M93.2683 105.639V113.461C93.2683 114.698 92.777 115.884 91.9025 116.759C91.0279 117.633 89.8418 118.125 88.605 118.125C87.3681 118.125 86.182 117.633 85.3074 116.759C84.4329 115.884 83.9416 114.698 83.9416 113.461V105.689H91.7139C92.2362 105.689 92.7522 105.67 93.2683 105.639ZM83.9416 105.689H41.9712C35.7872 105.689 29.8564 103.232 25.4837 98.8597C21.1109 94.487 18.6543 88.5563 18.6543 82.3723V63.209L54.183 82.8386C58.0742 84.9322 62.4239 86.0281 66.8425 86.0281C71.2612 86.0281 75.6109 84.9322 79.502 82.8386L83.9416 80.3888V105.689ZM93.2683 75.2342L115.031 63.209V82.3723C115.031 88.2876 112.784 93.9819 108.743 98.302C104.702 102.622 99.1705 105.245 93.2683 105.639V75.2342Z" fill="#3F93E6" fill-opacity="0.08"/>
<path fill-rule="evenodd" clip-rule="evenodd" d="M83.9408 73.2812L76.4918 77.3974C73.5262 78.9952 70.2103 79.8316 66.8417 79.8316C63.4731 79.8316 60.1572 78.9952 57.1916 77.3974L5.49657 48.8327C1.97727 46.8866 0 43.4792 0 39.9164C0 36.3474 1.97727 32.94 5.49657 31.0001L57.1916 2.42921C60.1582 0.834611 63.4737 0 66.8417 0C70.2097 0 73.5252 0.834611 76.4918 2.42921L128.187 31.0001C131.706 32.94 133.683 36.3474 133.683 39.9164C133.683 43.4792 131.706 46.8866 128.187 48.8327L93.2675 68.1266V63.7182C93.268 63.1058 93.1474 62.4994 92.9126 61.9339C92.6779 61.3683 92.3336 60.8547 91.8996 60.4227L70.1372 38.6604C69.7044 38.2276 69.1906 37.8844 68.6252 37.6501C68.0598 37.4159 67.4537 37.2954 66.8417 37.2954C66.2297 37.2954 65.6237 37.4159 65.0582 37.6501C64.4928 37.8844 63.979 38.2276 63.5463 38.6604C63.1135 39.0932 62.7702 39.6069 62.536 40.1724C62.3018 40.7378 62.1812 41.3438 62.1812 41.9558C62.1812 42.5679 62.3018 43.1739 62.536 43.7393C62.7702 44.3048 63.1135 44.8185 63.5463 45.2513L83.9408 65.6519V73.2812Z" fill="#3F93E6" fill-opacity="0.08"/>
</svg>
