<svg width="140" height="140" viewBox="0 0 140 140" fill="none" xmlns="http://www.w3.org/2000/svg">
<path d="M84.484 31.3127C90.9572 35.3714 95.4963 42.2395 96.3227 50.2117C99.0371 51.4887 101.999 52.152 104.999 52.1546C116.34 52.1546 125.532 42.9628 125.532 31.6237C125.532 20.2829 116.34 11.0911 104.999 11.0911C93.7666 11.0946 84.6552 20.1221 84.484 31.3127ZM71.0326 73.3529C82.3734 73.3529 91.5652 64.1593 91.5652 52.8203C91.5652 41.4812 82.3716 32.2894 71.0326 32.2894C59.6935 32.2894 50.4964 41.4829 50.4964 52.822C50.4964 64.1611 59.6935 73.3529 71.0326 73.3529ZM79.7422 74.7524H62.3195C47.8233 74.7524 36.03 86.5475 36.03 101.044V122.35L36.0841 122.684L37.5517 123.143C51.3858 127.466 63.4045 128.907 73.2969 128.907C92.6187 128.907 103.818 123.399 104.508 123.047L105.88 122.354H106.026V101.044C106.032 86.5475 94.2384 74.7524 79.7422 74.7524ZM113.712 53.5558H96.4241C96.2484 60.2313 93.4412 66.5667 88.6143 71.1812C101.5 75.0127 110.927 86.9615 110.927 101.075V107.641C127.997 107.015 137.834 102.178 138.482 101.853L139.853 101.157H140V79.8436C140 65.3492 128.207 53.5558 113.712 53.5558ZM35.0044 52.1581C39.0211 52.1581 42.7583 50.9857 45.9241 48.9887C46.9175 42.5635 50.3359 36.7634 55.4759 32.7821C55.4968 32.3977 55.5335 32.0168 55.5335 31.6289C55.5335 20.2881 46.3399 11.0963 35.0044 11.0963C23.6618 11.0963 14.4717 20.2881 14.4717 31.6289C14.4717 42.9645 23.6618 52.1581 35.0044 52.1581ZM53.4439 71.1812C48.6438 66.5887 45.8408 60.2938 45.6393 53.6537C44.9981 53.6065 44.3639 53.5558 43.7105 53.5558H26.2895C11.7933 53.5558 0 65.3492 0 79.8436V101.154L0.054162 101.482L1.52178 101.945C12.6197 105.41 22.5244 107.007 31.1274 107.51V101.075C31.1309 86.9615 40.5551 75.0162 53.4439 71.1812Z" fill="#3F93E6" fill-opacity="0.08"/>
</svg>
