<svg width="144" height="141" viewBox="0 0 144 141" fill="none" xmlns="http://www.w3.org/2000/svg">
<path d="M71.802 32.7756C50.2977 32.7756 32.866 49.6794 32.866 70.5318C32.866 91.3833 50.2977 108.287 71.802 108.287C93.3038 108.287 110.736 91.3833 110.736 70.5318C110.711 49.6897 93.2942 32.8005 71.802 32.7756ZM71.802 39.2175C79.3177 39.2175 85.4095 45.1257 85.4095 52.4137C85.4095 59.7016 79.3174 65.6088 71.802 65.6088C64.2863 65.6088 58.1923 59.7016 58.1923 52.4137C58.2005 45.1289 64.2885 39.2246 71.802 39.2175ZM94.9415 93.0879C94.9415 94.546 93.6252 95.6097 92.1215 95.6097H51.48C49.9763 95.6097 48.6611 94.5457 48.6611 93.0879V78.6441C48.6611 71.9537 54.371 66.5716 61.2708 66.5716C61.6959 66.566 62.1164 66.6579 62.4979 66.8399C62.8794 67.022 63.2111 67.2889 63.4658 67.619C64.4325 68.8791 65.6896 69.9024 67.1369 70.6074C68.5841 71.3123 70.1813 71.6792 71.8009 71.6788C73.4205 71.6784 75.0175 71.3107 76.4644 70.605C77.9112 69.8994 79.1678 68.8753 80.1338 67.6148C80.3885 67.2854 80.72 67.0192 81.1011 66.8379C81.4822 66.6565 81.9022 66.5652 82.3267 66.5714C89.2283 66.5714 94.9382 71.9537 94.9382 78.6441L94.9415 93.0879Z" fill="#3F93E6" fill-opacity="0.08"/>
<path d="M83.5749 71.8848C82.8369 72.6611 82.0194 73.3626 81.135 73.9784C74.5836 78.6362 65.461 77.7312 60.0162 71.8848C56.6195 72.4564 54.1317 75.3023 54.1063 78.6444V90.331H89.4967V78.6444C89.4668 75.3002 86.9748 72.4532 83.5749 71.8848Z" fill="#3F93E6" fill-opacity="0.08"/>
<path d="M127.415 58.9266C125.911 52.326 123.181 46.0461 119.358 40.3938C119.04 39.9218 118.885 39.3634 118.918 38.8002C118.95 38.2371 119.168 37.6989 119.539 37.2644L128.357 26.9408L116.363 15.3068L105.713 23.8606C105.264 24.2226 104.707 24.4349 104.123 24.4662C103.54 24.4974 102.962 24.3459 102.474 24.0341C96.6706 20.3031 90.1969 17.6603 83.3888 16.2427C82.8259 16.1295 82.3151 15.8448 81.9311 15.43C81.547 15.0153 81.3099 14.4923 81.2542 13.9375L79.9208 0.576172H63.6819L62.3507 13.9375C62.2936 14.4896 62.0553 15.0094 61.6709 15.4205C61.2864 15.8315 60.7761 16.1121 60.215 16.221C53.4063 17.6427 46.9328 20.2893 41.1297 24.0238C40.6429 24.337 40.0651 24.4899 39.4817 24.4598C38.8984 24.4296 38.3405 24.2181 37.8908 23.8566L27.2425 15.3058L15.2438 26.9366L24.0638 37.2622C24.4352 37.6964 24.6534 38.2345 24.6864 38.7977C24.7193 39.3609 24.5653 39.9196 24.2468 40.3916C20.4245 46.0443 17.696 52.3249 16.1951 58.9258C16.0727 59.4698 15.7755 59.9621 15.3461 60.3319C14.9168 60.7016 14.3776 60.9297 13.8061 60.9833L0 62.2739V78.7886L13.8063 80.0803C14.379 80.1341 14.9189 80.364 15.3473 80.7363C15.7757 81.1087 16.0702 81.6041 16.1877 82.1502C17.6539 88.7531 20.3836 95.031 24.2354 100.658C24.5577 101.131 24.715 101.691 24.684 102.257C24.653 102.823 24.4354 103.364 24.0632 103.8L15.2438 114.125L27.2403 125.757L37.8886 117.206C38.3367 116.846 38.892 116.635 39.473 116.603C40.0539 116.572 40.6301 116.721 41.1169 117.031C46.9445 120.739 53.4196 123.388 60.2256 124.847C60.7872 124.967 61.2951 125.257 61.6763 125.674C62.0576 126.092 62.2926 126.615 62.3477 127.171L63.6797 140.576H79.9186L81.2521 127.171C81.3074 126.616 81.5424 126.092 81.9233 125.675C82.3042 125.257 82.8116 124.968 83.3727 124.847C90.1797 123.388 96.6559 120.74 102.485 117.032C102.971 116.722 103.547 116.573 104.128 116.604C104.709 116.636 105.264 116.847 105.712 117.207L116.359 125.758L128.355 114.126L119.535 103.8C119.162 103.364 118.944 102.823 118.913 102.257C118.882 101.691 119.039 101.131 119.361 100.658C123.212 95.0308 125.94 88.7529 127.405 82.1502C127.524 81.6035 127.821 81.1081 128.251 80.7359C128.681 80.3636 129.222 80.134 129.796 80.0803L143.603 78.7876V62.2739L129.796 60.9833C129.225 60.9295 128.687 60.7013 128.259 60.3316C127.831 59.9619 127.536 59.4699 127.415 58.9266H127.415ZM71.8023 113.567C47.2912 113.567 27.4214 94.2993 27.4214 70.5318C27.4214 46.7643 47.291 27.4969 71.8023 27.4969C96.3123 27.4969 116.18 46.7643 116.18 70.5318C116.152 94.2879 96.2997 113.54 71.8023 113.567Z" fill="#3F93E6" fill-opacity="0.08"/>
<path d="M71.8021 60.3285C76.3094 60.3285 79.9645 56.7852 79.9645 52.4132C79.9645 48.0415 76.3094 44.4961 71.8021 44.4961C67.2925 44.4961 63.6373 48.0413 63.6373 52.4132C63.6428 56.7831 67.2936 60.3235 71.8021 60.3285Z" fill="#3F93E6" fill-opacity="0.08"/>
</svg>
