<svg width="32" height="32" viewBox="0 0 32 32" fill="none" xmlns="http://www.w3.org/2000/svg">
<path d="M31.7467 12.3599C31.574 12.0482 31.3209 11.7884 31.0137 11.6079C30.7064 11.4273 30.3564 11.3324 30 11.3333H11.048C10.4091 11.3334 9.78737 11.5407 9.27627 11.9242C8.76516 12.3076 8.39219 12.8465 8.21334 13.4599L4.46201 26.3199C4.26455 26.9969 3.85287 27.5915 3.28875 28.0147C2.72464 28.4378 2.03851 28.6665 1.33334 28.6666H25.1653C25.8706 28.6666 26.5568 28.4378 27.1211 28.0147C27.6853 27.5916 28.0971 26.9969 28.2947 26.3199L31.896 13.9733C31.9797 13.708 32.0096 13.4286 31.9841 13.1516C31.9586 12.8746 31.8774 12.6055 31.7467 12.3599Z" fill="#135393"/>
<path d="M3.18 25.9466L6.93333 13.0866C7.19481 12.1976 7.73651 11.4168 8.47771 10.8606C9.21892 10.3044 10.12 10.0025 11.0467 9.99992H28V9.33325C28 8.62601 27.719 7.94773 27.219 7.44763C26.7189 6.94754 26.0406 6.66659 25.3333 6.66659H15.1707C14.972 6.66663 14.7757 6.62237 14.5963 6.53703C14.4169 6.45169 14.2587 6.32742 14.1333 6.17325L12.8227 4.56192C12.5105 4.1781 12.1167 3.86867 11.67 3.65613C11.2232 3.44359 10.7347 3.33329 10.24 3.33325H2.66667C1.95942 3.33325 1.28115 3.6142 0.781049 4.1143C0.280952 4.6144 0 5.29267 0 5.99992L0 25.9999C0 26.3535 0.140476 26.6927 0.390524 26.9427C0.640573 27.1928 0.979711 27.3333 1.33333 27.3333C1.7495 27.3321 2.15416 27.1965 2.48695 26.9466C2.81974 26.6967 3.06284 26.3459 3.18 25.9466Z" fill="#135393"/>
</svg>
