<svg width="20" height="20" viewBox="0 0 20 20" fill="none" xmlns="http://www.w3.org/2000/svg">
<path d="M5 0C4.3125 0 3.75 0.5625 3.75 1.25V18.75C3.75 19.4375 4.3125 20 5 20H17.5C18.1875 20 18.75 19.4375 18.75 18.75V5L13.75 0H5Z" fill="white"/>
<path d="M15 5H18.75L13.75 0V3.75C13.75 4.4375 14.3125 5 15 5Z" fill="#B0B7BD"/>
<path d="M18.75 8.75L15 5H18.75V8.75Z" fill="#CAD1D8"/>
<path d="M16.25 16.25C16.25 16.5938 15.9688 16.875 15.625 16.875H1.875C1.53125 16.875 1.25 16.5938 1.25 16.25V10C1.25 9.65625 1.53125 9.375 1.875 9.375H15.625C15.9688 9.375 16.25 9.65625 16.25 10V16.25Z" fill="#EB5757"/>
<path d="M3.97437 11.8418C3.97437 11.6768 4.10437 11.4968 4.31374 11.4968H5.46811C6.11811 11.4968 6.70312 11.9318 6.70312 12.7656C6.70312 13.5556 6.11811 13.9956 5.46811 13.9956H4.63374V14.6556C4.63374 14.8756 4.49374 15 4.31374 15C4.14874 15 3.97437 14.8756 3.97437 14.6556V11.8418ZM4.63374 12.1262V13.3712H5.46811C5.80311 13.3712 6.06811 13.0756 6.06811 12.7656C6.06811 12.4162 5.80311 12.1262 5.46811 12.1262H4.63374ZM7.68187 15C7.51687 15 7.33687 14.91 7.33687 14.6906V11.8518C7.33687 11.6725 7.51687 11.5418 7.68187 11.5418H8.82624C11.11 11.5418 11.06 15 8.87124 15H7.68187ZM7.99687 12.1518V14.3906H8.82624C10.1756 14.3906 10.2356 12.1518 8.82624 12.1518H7.99687ZM11.87 12.1918V12.9862H13.1444C13.3244 12.9862 13.5044 13.1662 13.5044 13.3406C13.5044 13.5056 13.3244 13.6406 13.1444 13.6406H11.87V14.69C11.87 14.865 11.7456 14.9993 11.5706 14.9993C11.3506 14.9993 11.2162 14.865 11.2162 14.69V11.8512C11.2162 11.6718 11.3512 11.5412 11.5706 11.5412H13.325C13.545 11.5412 13.675 11.6718 13.675 11.8512C13.675 12.0112 13.545 12.1912 13.325 12.1912H11.87V12.1918Z" fill="white"/>
<path d="M15.625 16.875H3.75V17.5H15.625C15.9688 17.5 16.25 17.2188 16.25 16.875V16.25C16.25 16.5938 15.9688 16.875 15.625 16.875Z" fill="#CAD1D8"/>
</svg>
