<svg width="20" height="20" viewBox="0 0 20 20" fill="none" xmlns="http://www.w3.org/2000/svg">
<g clip-path="url(#clip0_14389_12133)">
<path d="M19.1295 6.52359V17.6545C19.1295 18.691 18.2893 19.5312 17.2528 19.5312H5.67933C4.64285 19.5312 3.80261 18.691 3.80261 17.6545V2.34547C3.80261 1.30898 4.64285 0.46875 5.67933 0.46875H13.4309L19.1295 6.52359Z" fill="#E9714F"/>
<path d="M19.1295 6.52355H14.6821C13.9911 6.52355 13.4309 5.9634 13.4309 5.27242V0.46875L19.1295 6.52355ZM15.7378 16.7034H1.22989C1.13458 16.7034 1.04317 16.6655 0.975772 16.5981C0.908377 16.5307 0.870514 16.4393 0.870514 16.344V9.76883C0.870514 9.67352 0.908377 9.58211 0.975772 9.51471C1.04317 9.44732 1.13458 9.40945 1.22989 9.40945H15.7378C15.8331 9.40945 15.9245 9.44732 15.9919 9.51471C16.0593 9.58211 16.0972 9.67352 16.0972 9.76883V16.344C16.0972 16.4393 16.0593 16.5307 15.9919 16.5981C15.9245 16.6655 15.8331 16.7034 15.7378 16.7034Z" fill="#E03303"/>
<path d="M4.80728 14.9577C4.73642 14.9577 4.67287 14.943 4.61544 14.9137C4.55802 14.8843 4.52869 14.8379 4.52869 14.7744V11.2959C4.52869 11.2458 4.54822 11.2042 4.58857 11.17C4.62888 11.1346 4.68142 11.1163 4.74373 11.1163H5.76884C5.98267 11.1163 6.17693 11.1554 6.35166 11.2299C6.52759 11.3056 6.66568 11.4278 6.76709 11.5977C6.86849 11.7675 6.91982 11.9935 6.91982 12.2733V12.3148C6.91982 12.5946 6.86728 12.8207 6.7622 12.9905C6.65712 13.1604 6.51541 13.2837 6.3358 13.3607C6.1574 13.4377 5.95826 13.4768 5.73709 13.4768H5.08587V14.7743C5.08587 14.8379 5.05654 14.8843 4.99912 14.9136C4.94048 14.943 4.87693 14.9577 4.80728 14.9577ZM5.08587 13.0345H5.73709C5.9338 13.0345 6.08654 12.9783 6.1965 12.8671C6.30767 12.7547 6.36267 12.5825 6.36267 12.3528V12.2893C6.36267 12.0571 6.30767 11.8861 6.1965 11.7761C6.08654 11.6661 5.9338 11.6111 5.73709 11.6111H5.08587V13.0345ZM7.67615 14.9577C7.60529 14.9577 7.54173 14.943 7.48431 14.9137C7.42689 14.8843 7.39755 14.8379 7.39755 14.7744V11.2959C7.39755 11.2458 7.41709 11.2042 7.45744 11.17C7.49775 11.1346 7.55029 11.1163 7.61259 11.1163H8.63771C8.85154 11.1163 9.0458 11.1554 9.22052 11.2299C9.39646 11.3056 9.53455 11.4278 9.63595 11.5977C9.73736 11.7675 9.78869 11.9935 9.78869 12.2733V12.3148C9.78869 12.5946 9.73615 12.8207 9.63107 12.9905C9.52599 13.1604 9.38427 13.2837 9.20466 13.3607C9.02627 13.4377 8.82712 13.4768 8.60599 13.4768H7.9547V14.7743C7.9547 14.8379 7.92537 14.8843 7.86794 14.9136C7.80931 14.943 7.74576 14.9577 7.67615 14.9577ZM7.9547 13.0345H8.60591C8.80263 13.0345 8.95537 12.9783 9.06533 12.8671C9.1765 12.7547 9.2315 12.5825 9.2315 12.3528V12.2893C9.2315 12.0571 9.1765 11.8861 9.06533 11.7761C8.95537 11.6661 8.80263 11.6111 8.60591 11.6111H7.9547V13.0345ZM11.239 14.9577C11.1693 14.9577 11.1045 14.943 11.0471 14.9112C10.9897 14.8795 10.9604 14.8342 10.9604 14.7744V11.627H10.1466C10.0904 11.627 10.0464 11.6001 10.0147 11.5487C9.98291 11.495 9.96701 11.4363 9.96701 11.3691C9.96701 11.3068 9.98166 11.2482 10.0098 11.1956C10.0379 11.1431 10.0831 11.1162 10.1466 11.1162H12.3263C12.3935 11.1162 12.4412 11.1431 12.4681 11.1956C12.4962 11.2474 12.5109 11.3053 12.5108 11.3642C12.5108 11.4339 12.4962 11.495 12.4656 11.5487C12.4363 11.6 12.3899 11.6269 12.3263 11.6269H11.5175V14.7743C11.5175 14.8342 11.4882 14.8794 11.4308 14.9112C11.3734 14.943 11.3086 14.9577 11.239 14.9577Z" fill="white"/>
</g>
<defs>
<clipPath id="clip0_14389_12133">
<rect width="20" height="20" fill="white"/>
</clipPath>
</defs>
</svg>
