<svg width="32" height="32" viewBox="0 0 32 32" fill="none" xmlns="http://www.w3.org/2000/svg">
<path d="M15.9375 14.375C20.0481 14.375 23.3924 11.1506 23.3924 7.1875C23.3924 3.22438 20.0481 0 15.9375 0C11.8269 0 8.48256 3.22438 8.48256 7.1875C8.48256 11.1506 11.8269 14.375 15.9375 14.375ZM19.4735 14.375H18.8547V18.9697L20.1322 25.1287C20.1664 25.2935 20.154 25.4642 20.0963 25.6228C20.0386 25.7814 19.9377 25.9221 19.8042 26.0303L16.5629 28.6553C16.3822 28.8018 16.1599 28.875 15.9375 28.875C15.7151 28.875 15.4928 28.8018 15.3121 28.6553L12.0708 26.0303C11.9373 25.9221 11.8364 25.7814 11.7787 25.6228C11.7209 25.4642 11.7085 25.2935 11.7426 25.1287L13.0203 18.9697V14.375H12.4015C6.66615 14.375 2 19.2815 2 25.3125V31.0625C2 31.5803 2.4353 32 2.97238 32H28.9026C29.4397 32 29.875 31.5803 29.875 31.0625V25.3125C29.875 19.2815 25.2089 14.375 19.4735 14.375Z" fill="#135393"/>
<path d="M13.7626 24.9519L15.9375 26.7131L18.1124 24.9519L17.0852 20H14.79L13.7626 24.9519ZM14.9651 16.25H16.9099V18.125H14.9651V16.25Z" fill="#135393"/>
</svg>
