<svg width="32" height="32" viewBox="0 0 32 32" fill="none" xmlns="http://www.w3.org/2000/svg">
<g clip-path="url(#clip0_14381_270)">
<path d="M15.9274 7.35986C11.1611 7.35986 7.29742 11.2236 7.29742 15.9898C7.29742 20.7559 11.1611 24.6196 15.9274 24.6196C20.6932 24.6196 24.5568 20.7559 24.5568 15.9898C24.5514 11.2259 20.6911 7.36554 15.9274 7.35986ZM15.9274 8.83229C17.5932 8.83229 18.9434 10.1827 18.9434 11.8486C18.9434 13.5144 17.5932 14.8646 15.9274 14.8646C14.2616 14.8646 12.9109 13.5144 12.9109 11.8486C12.9127 10.1835 14.2621 8.83392 15.9274 8.83229ZM21.0562 21.1455C21.0562 21.4788 20.7644 21.7219 20.4311 21.7219H11.4231C11.0898 21.7219 10.7983 21.4787 10.7983 21.1455V17.8441C10.7983 16.3149 12.0639 15.0847 13.5932 15.0847C13.6874 15.0834 13.7806 15.1044 13.8652 15.146C13.9498 15.1876 14.0233 15.2486 14.0797 15.3241C14.294 15.6121 14.5726 15.846 14.8934 16.0071C15.2142 16.1682 15.5682 16.2521 15.9272 16.252C16.2861 16.2519 16.6401 16.1679 16.9608 16.0066C17.2815 15.8453 17.56 15.6112 17.7741 15.3231C17.8306 15.2478 17.904 15.187 17.9885 15.1455C18.073 15.1041 18.1661 15.0832 18.2601 15.0846C19.7899 15.0846 21.0554 16.3149 21.0554 17.8441L21.0562 21.1455Z" fill="#135393"/>
<path d="M18.5367 16.2991C18.3732 16.4765 18.192 16.6369 17.9959 16.7776C16.5439 17.8423 14.5219 17.6354 13.3151 16.2991C12.5622 16.4297 12.0108 17.0802 12.0052 17.8441V20.5153H19.8493V17.8441C19.8427 17.0798 19.2903 16.429 18.5367 16.2991Z" fill="#135393"/>
<path d="M28.2537 13.3372C27.9205 11.8285 27.3153 10.3931 26.4679 9.10116C26.3974 8.99329 26.3632 8.86564 26.3704 8.73693C26.3776 8.60821 26.4258 8.48518 26.508 8.38587L28.4624 6.0262L25.804 3.367L23.4436 5.32214C23.3441 5.4049 23.2205 5.45343 23.0912 5.46057C22.962 5.46772 22.8338 5.43309 22.7258 5.36181C21.4394 4.509 20.0045 3.90494 18.4955 3.58092C18.3708 3.55506 18.2576 3.48997 18.1724 3.39517C18.0873 3.30036 18.0347 3.18082 18.0224 3.05401L17.7269 0H14.1276L13.8325 3.05401C13.8199 3.18021 13.7671 3.29903 13.6819 3.39299C13.5966 3.48694 13.4835 3.55108 13.3592 3.57597C11.8501 3.90091 10.4152 4.50585 9.12901 5.35946C9.02112 5.43105 8.89305 5.46599 8.76375 5.4591C8.63445 5.45222 8.51081 5.40388 8.41113 5.32124L6.05098 3.36676L3.39153 6.02524L5.34643 8.38539C5.42876 8.48462 5.47712 8.60763 5.48442 8.73636C5.49173 8.86509 5.45758 8.99277 5.38701 9.10068C4.5398 10.3927 3.93505 11.8283 3.60237 13.3371C3.57525 13.4614 3.50937 13.5739 3.41422 13.6584C3.31906 13.743 3.19954 13.7951 3.07286 13.8073L0.0128174 14.1023V17.8771L3.07292 18.1724C3.19984 18.1847 3.31952 18.2372 3.41447 18.3223C3.50942 18.4074 3.57469 18.5207 3.60074 18.6455C3.92572 20.1547 4.53074 21.5897 5.38447 22.876C5.45591 22.9839 5.49077 23.112 5.4839 23.2413C5.47703 23.3706 5.42879 23.4943 5.34631 23.5941L3.39153 25.954L6.05049 28.6127L8.41064 26.6583C8.50996 26.576 8.63303 26.5277 8.7618 26.5205C8.89057 26.5133 9.01827 26.5475 9.12617 26.6181C10.4178 27.4658 11.853 28.0712 13.3615 28.4047C13.486 28.4322 13.5986 28.4984 13.6831 28.5938C13.7676 28.6892 13.8197 28.809 13.8319 28.9359L14.1271 32H17.7264L18.0219 28.9359C18.0342 28.809 18.0863 28.6894 18.1707 28.594C18.2551 28.4986 18.3676 28.4323 18.492 28.4047C20.0007 28.0713 21.4361 27.466 22.728 26.6184C22.8359 26.5477 22.9636 26.5135 23.0923 26.5207C23.2211 26.5279 23.3441 26.5762 23.4434 26.6585L25.8033 28.613L28.462 25.9542L26.5071 23.5941C26.4245 23.4943 26.3762 23.3707 26.3693 23.2414C26.3623 23.1121 26.3972 22.984 26.4686 22.876C27.3221 21.5896 27.9268 20.1547 28.2514 18.6455C28.278 18.5205 28.3437 18.4073 28.439 18.3222C28.5343 18.2371 28.6542 18.1846 28.7814 18.1724L31.8418 17.8769V14.1023L28.7814 13.8073C28.6549 13.7951 28.5357 13.7429 28.4408 13.6584C28.346 13.5739 28.2805 13.4614 28.2538 13.3372H28.2537ZM15.9274 25.8264C10.4947 25.8264 6.09064 21.4224 6.09064 15.9899C6.09064 10.5573 10.4946 6.1533 15.9274 6.1533C21.36 6.1533 25.7635 10.5573 25.7635 15.9899C25.7574 21.4198 21.3572 25.8203 15.9274 25.8264Z" fill="#135393"/>
<path d="M15.9274 13.6577C16.9264 13.6577 17.7366 12.8478 17.7366 11.8484C17.7366 10.8492 16.9264 10.0388 15.9274 10.0388C14.9279 10.0388 14.1177 10.8491 14.1177 11.8484C14.1189 12.8473 14.9281 13.6565 15.9274 13.6577Z" fill="#135393"/>
</g>
<defs>
<clipPath id="clip0_14381_270">
<rect width="32" height="32" fill="white"/>
</clipPath>
</defs>
</svg>
