<svg width="23" height="24" viewBox="0 0 23 24" fill="none" xmlns="http://www.w3.org/2000/svg">
<path fill-rule="evenodd" clip-rule="evenodd" d="M10.7813 2.63989C5.88609 2.63989 1.91667 6.61429 1.91667 11.518C1.91667 16.4217 5.88609 20.3961 10.7813 20.3961C12.8837 20.4005 14.9186 19.6521 16.5188 18.286L19.8548 21.6268C19.9206 21.6975 19.9999 21.7542 20.0881 21.7936C20.1762 21.833 20.2714 21.8541 20.3679 21.8558C20.4644 21.8575 20.5603 21.8397 20.6498 21.8035C20.7393 21.7673 20.8206 21.7134 20.8888 21.645C20.9571 21.5767 21.0109 21.4952 21.047 21.4056C21.0832 21.3159 21.1009 21.2199 21.0992 21.1232C21.0975 21.0266 21.0764 20.9312 21.0371 20.8429C20.9978 20.7546 20.9412 20.6751 20.8706 20.6092L17.5356 17.2684C18.9014 15.6652 19.6499 13.6256 19.6458 11.518C19.6458 6.61429 15.6764 2.63989 10.7813 2.63989ZM3.35417 11.518C3.35468 9.54509 4.1374 7.65319 5.53019 6.25834C6.92298 4.86348 8.8118 4.07989 10.7813 4.07989C11.7664 4.06404 12.7448 4.24471 13.6595 4.61139C14.5743 4.97808 15.407 5.52343 16.1093 6.21569C16.8115 6.90795 17.3692 7.73328 17.7499 8.64359C18.1306 9.55391 18.3267 10.531 18.3267 11.518C18.3267 12.5049 18.1306 13.482 17.7499 14.3924C17.3692 15.3027 16.8115 16.128 16.1093 16.8203C15.407 17.5125 14.5743 18.0579 13.6595 18.4246C12.7448 18.7912 11.7664 18.9719 10.7813 18.9561C8.8118 18.9561 6.92298 18.1725 5.53019 16.7776C4.1374 15.3828 3.35468 13.4909 3.35417 11.518Z" fill="#8C8C8C"/>
</svg>
