<svg width="24" height="24" viewBox="0 0 24 24" fill="none" xmlns="http://www.w3.org/2000/svg">
<g clip-path="url(#clip0_14389_12179)">
<path d="M6.675 11.6719H11.1516C14.8406 11.6719 17.8266 14.6625 17.8266 18.3469V20.25C17.8266 21.8063 16.5656 23.0719 15.0047 23.0719H2.81719C1.26094 23.0672 0 21.8063 0 20.25V18.3469C0 14.6578 2.99062 11.6719 6.675 11.6719Z" fill="#3F93E6"/>
<path d="M8.91561 10.4295C11.5381 10.4295 13.6641 8.30354 13.6641 5.68106C13.6641 3.05856 11.5381 0.932617 8.91561 0.932617C6.29312 0.932617 4.16718 3.05856 4.16718 5.68106C4.16718 8.30354 6.29312 10.4295 8.91561 10.4295Z" fill="#3F93E6"/>
<path d="M22.65 7.89336H21.1125V6.35586C21.1125 5.61055 20.5078 5.00586 19.7625 5.00586C19.0172 5.00586 18.4125 5.61055 18.4125 6.35586V7.89336H16.875C16.1297 7.89336 15.525 8.49805 15.525 9.24336C15.525 9.98867 16.1297 10.5934 16.875 10.5934H18.4125V12.1309C18.4125 12.8762 19.0172 13.4809 19.7625 13.4809C20.5078 13.4809 21.1125 12.8762 21.1125 12.1309V10.5934H22.65C23.3953 10.5934 24 9.98867 24 9.24336C24 8.49805 23.3953 7.89336 22.65 7.89336Z" fill="#3F93E6"/>
</g>
<defs>
<clipPath id="clip0_14389_12179">
<rect width="24" height="24" fill="white"/>
</clipPath>
</defs>
</svg>
