<svg width="24" height="24" viewBox="0 0 24 24" fill="none" xmlns="http://www.w3.org/2000/svg">
<g clip-path="url(#clip0_14389_12120)">
<path fill-rule="evenodd" clip-rule="evenodd" d="M12.1722 3.82242V2.62636C12.1722 1.6672 12.6502 0.839156 13.4809 0.359625C13.8806 0.128906 14.3266 0.000188599 14.7891 -4.57764e-05C15.252 -0.000280151 15.6979 0.128672 16.0979 0.359625L21.4161 3.43012C22.2469 3.90975 22.7248 4.73756 22.7248 5.69686V21.3826C22.7248 22.8259 21.5507 24 20.1074 24H8.3947C6.95133 24 5.77711 22.826 5.77711 21.3826V18.0761C5.77711 17.6018 6.16223 17.2166 6.63656 17.2166C7.11103 17.2166 7.49583 17.6017 7.49583 18.0761V21.3826C7.49583 21.8782 7.89909 22.2815 8.3947 22.2815H18.6581L13.4809 19.2919C12.6505 18.8124 12.1722 17.9846 12.1722 17.0257V5.54114H8.3947C7.89914 5.54114 7.49583 5.94417 7.49583 6.43983V9.33839C7.49583 9.81305 7.11126 10.1978 6.63656 10.1978C6.16205 10.1978 5.77711 9.81295 5.77711 9.33839V6.43983C5.77711 4.99641 6.95133 3.82242 8.3947 3.82242H12.1722ZM4.20895 13.052L5.15541 12.1055C5.49098 11.7699 5.49089 11.2259 5.15541 10.8903C5.07567 10.8104 4.98094 10.7471 4.87667 10.704C4.77239 10.6608 4.66062 10.6387 4.54777 10.6388C4.43487 10.6386 4.32305 10.6607 4.21872 10.7039C4.1144 10.747 4.01964 10.8104 3.93989 10.8903L1.52681 13.3038C1.19133 13.6393 1.19128 14.1831 1.52681 14.5186L3.93989 16.9317C4.27551 17.2673 4.81959 17.2672 5.15536 16.9318C5.49084 16.5965 5.49075 16.0523 5.15536 15.7169L4.20895 14.7707H10.5493C11.0241 14.7707 11.4085 14.3859 11.4085 13.9112C11.4085 13.4364 11.024 13.0519 10.5493 13.0519H4.20895V13.052Z" fill="#A8A8A8"/>
</g>
<defs>
<clipPath id="clip0_14389_12120">
<rect width="24" height="24" fill="white" transform="matrix(-1 0 0 -1 24 24)"/>
</clipPath>
</defs>
</svg>
