<svg width="24" height="24" viewBox="0 0 24 24" fill="none" xmlns="http://www.w3.org/2000/svg">
<path d="M11.1995 5.1748C7.84823 5.1748 5.13159 7.89149 5.13159 11.2428C5.13159 14.5939 7.84823 17.3105 11.1995 17.3105C14.5505 17.3105 17.2671 14.5939 17.2671 11.2428C17.2633 7.89315 14.549 5.1788 11.1995 5.1748ZM11.1995 6.2101C12.3708 6.2101 13.3202 7.15965 13.3202 8.33092C13.3202 9.50219 12.3708 10.4516 11.1995 10.4516C10.0283 10.4516 9.07856 9.50219 9.07856 8.33092C9.07983 7.16015 10.0286 6.21125 11.1995 6.2101ZM14.8057 14.8679C14.8057 15.1022 14.6006 15.2731 14.3662 15.2731H8.03248C7.79814 15.2731 7.59318 15.1021 7.59318 14.8679V12.5465C7.59318 11.4713 8.48303 10.6063 9.55832 10.6063C9.62458 10.6054 9.69011 10.6202 9.74956 10.6494C9.80901 10.6787 9.8607 10.7216 9.90041 10.7746C10.0511 10.9771 10.247 11.1416 10.4725 11.2549C10.6981 11.3682 10.947 11.4272 11.1994 11.4271C11.4518 11.427 11.7007 11.3679 11.9261 11.2545C12.1516 11.1411 12.3475 10.9765 12.498 10.774C12.5377 10.721 12.5894 10.6782 12.6488 10.6491C12.7082 10.6199 12.7736 10.6053 12.8398 10.6063C13.9153 10.6063 14.8052 11.4713 14.8052 12.5465L14.8057 14.8679Z" fill="#FF9B53"/>
<path d="M13.0343 11.4604C12.9193 11.5852 12.7919 11.698 12.654 11.7969C11.633 12.5455 10.2113 12.4001 9.36279 11.4604C8.83344 11.5523 8.44572 12.0097 8.44177 12.5468V14.425H13.9572V12.5468C13.9525 12.0094 13.5641 11.5518 13.0343 11.4604Z" fill="#FF9B53"/>
<path d="M19.8665 9.37775C19.6322 8.31695 19.2067 7.30766 18.6109 6.39926C18.5612 6.32341 18.5372 6.23366 18.5423 6.14315C18.5474 6.05265 18.5813 5.96615 18.6391 5.89632L20.0133 4.23718L18.1441 2.36743L16.4844 3.74213C16.4144 3.80032 16.3275 3.83445 16.2366 3.83947C16.1458 3.84449 16.0557 3.82014 15.9797 3.77003C15.0752 3.1704 14.0663 2.74566 13.0053 2.51784C12.9176 2.49965 12.838 2.45389 12.7781 2.38723C12.7183 2.32057 12.6813 2.23652 12.6726 2.14735L12.4648 0H9.93407L9.7266 2.14735C9.71771 2.23609 9.68057 2.31963 9.62066 2.38569C9.56075 2.45176 9.48122 2.49685 9.39377 2.51436C8.33268 2.74283 7.32382 3.16818 6.41944 3.76837C6.34358 3.81871 6.25353 3.84328 6.16261 3.83844C6.0717 3.8336 5.98476 3.7996 5.91468 3.7415L4.2552 2.36726L2.38527 4.2365L3.75981 5.89598C3.8177 5.96575 3.8517 6.05224 3.85684 6.14276C3.86197 6.23327 3.83797 6.32305 3.78834 6.39892C3.19265 7.30738 2.76743 8.31676 2.53352 9.37762C2.51445 9.46505 2.46813 9.54418 2.40122 9.6036C2.33432 9.66302 2.25028 9.69968 2.16121 9.70829L0.00961304 9.91571V12.5699L2.16125 12.7775C2.25049 12.7861 2.33464 12.823 2.4014 12.8829C2.46817 12.9427 2.51406 13.0224 2.53237 13.1101C2.76087 14.1713 3.18628 15.1802 3.78656 16.0847C3.83679 16.1606 3.8613 16.2507 3.85647 16.3416C3.85164 16.4325 3.81772 16.5194 3.75973 16.5896L2.38527 18.2489L4.25486 20.1183L5.91434 18.7441C5.98417 18.6863 6.07071 18.6523 6.16125 18.6472C6.25179 18.6422 6.34158 18.6662 6.41745 18.7159C7.32564 19.3119 8.33476 19.7376 9.39543 19.9721C9.48295 19.9914 9.5621 20.0379 9.62151 20.105C9.68093 20.1721 9.71756 20.2563 9.72614 20.3455L9.93373 22.5H12.4645L12.6723 20.3455C12.6809 20.2564 12.7175 20.1722 12.7769 20.1051C12.8363 20.0381 12.9153 19.9915 13.0028 19.9721C14.0636 19.7376 15.0729 19.312 15.9813 18.7161C16.0571 18.6664 16.1469 18.6423 16.2374 18.6474C16.3279 18.6525 16.4144 18.6864 16.4842 18.7443L18.1436 20.1185L20.013 18.2491L18.6384 16.5896C18.5803 16.5195 18.5464 16.4325 18.5415 16.3416C18.5366 16.2507 18.5611 16.1606 18.6114 16.0847C19.2114 15.1802 19.6366 14.1713 19.8649 13.1101C19.8836 13.0223 19.9298 12.9426 19.9968 12.8828C20.0638 12.823 20.1481 12.7861 20.2375 12.7775L22.3894 12.5697V9.91571L20.2375 9.70829C20.1486 9.69965 20.0648 9.66298 19.9981 9.60356C19.9314 9.54415 19.8853 9.46507 19.8666 9.37775H19.8665ZM11.1996 18.1592C7.37968 18.1592 4.28309 15.0627 4.28309 11.2429C4.28309 7.4231 7.37964 4.32654 11.1996 4.32654C15.0193 4.32654 18.1156 7.4231 18.1156 11.2429C18.1113 15.0608 15.0174 18.1549 11.1996 18.1592Z" fill="#FF9B53"/>
<path d="M11.1996 9.60309C11.902 9.60309 12.4716 9.03363 12.4716 8.33099C12.4716 7.6284 11.902 7.05859 11.1996 7.05859C10.4968 7.05859 9.92712 7.62835 9.92712 8.33099C9.92797 9.03329 10.4969 9.60228 11.1996 9.60309Z" fill="#FF9B53"/>
</svg>
