<svg width="24" height="24" viewBox="0 0 24 24" fill="none" xmlns="http://www.w3.org/2000/svg">
<path d="M23.81 9.27C23.6805 9.03618 23.4907 8.84139 23.2602 8.70595C23.0298 8.57051 22.7673 8.49939 22.5 8.5H8.286C7.80678 8.5001 7.34052 8.65562 6.95719 8.9432C6.57386 9.23079 6.29414 9.63494 6.16 10.095L3.3465 19.74C3.19841 20.2477 2.88965 20.6937 2.46656 21.0111C2.04347 21.3284 1.52887 21.5 1 21.5H18.874C19.4029 21.5 19.9176 21.3284 20.3408 21.0111C20.764 20.6938 21.0728 20.2478 21.221 19.74L23.922 10.48C23.9847 10.281 24.0072 10.0715 23.9881 9.86378C23.9689 9.65602 23.9081 9.45417 23.81 9.27Z" fill="#8C8C8C"/>
<path d="M2.385 19.46L5.2 9.815C5.39611 9.14822 5.80238 8.56264 6.35828 8.14549C6.91419 7.72834 7.58999 7.50193 8.285 7.5H21V7C21 6.46957 20.7893 5.96086 20.4142 5.58579C20.0391 5.21071 19.5304 5 19 5H11.378C11.229 5.00003 11.0818 4.96684 10.9472 4.90283C10.8126 4.83883 10.694 4.74562 10.6 4.63L9.617 3.4215C9.38288 3.13363 9.08756 2.90156 8.75249 2.74216C8.41743 2.58276 8.05105 2.50003 7.68 2.5H2C1.46957 2.5 0.960859 2.71071 0.585786 3.08579C0.210714 3.46086 0 3.96957 0 4.5L0 19.5C0 19.7652 0.105357 20.0196 0.292893 20.2071C0.48043 20.3946 0.734784 20.5 1 20.5C1.31213 20.4991 1.61562 20.3974 1.86521 20.21C2.1148 20.0226 2.29713 19.7595 2.385 19.46Z" fill="#8C8C8C"/>
</svg>
