<svg width="24" height="24" viewBox="0 0 24 24" fill="none" xmlns="http://www.w3.org/2000/svg">
<g clip-path="url(#clip0_14389_12115)">
<path d="M24 16.8807V14.4888L21.6059 14.2353C21.4585 13.6316 21.2192 13.0541 20.8962 12.5231L22.4101 10.6506L20.7188 8.95924L18.8462 10.4732C18.3153 10.1502 17.7378 9.91084 17.1341 9.76348L16.8806 7.36938H14.4886L14.2351 9.76348C13.6314 9.91085 13.0539 10.1502 12.523 10.4732L10.6504 8.95924L8.95908 10.6506L10.473 12.5231C10.1501 13.0541 9.91067 13.6316 9.76331 14.2353L7.36922 14.4888V16.8807L9.76331 17.1342C9.91068 17.738 10.1501 18.3155 10.473 18.8464L8.95908 20.719L10.6504 22.4103L12.523 20.8963C13.0539 21.2193 13.6314 21.4587 14.2351 21.6061L14.4887 24.0001H16.8806L17.1341 21.606C17.7379 21.4587 18.3153 21.2193 18.8463 20.8963L20.7188 22.4103L22.4102 20.7189L20.8962 18.8464C21.2192 18.3154 21.4586 17.7379 21.6059 17.1342L24 16.8807ZM15.6847 18.4868C14.1371 18.4868 12.8826 17.2323 12.8826 15.6848C12.8826 14.1372 14.1371 12.8827 15.6847 12.8827C17.2322 12.8827 18.4867 14.1372 18.4867 15.6848C18.4867 17.2323 17.2322 18.4868 15.6847 18.4868Z" fill="#8C8C8C"/>
<path d="M11.1084 5.3572C10.9934 4.88613 10.8066 4.43555 10.5546 4.02127L11.7359 2.56017L10.4162 1.24045L8.95509 2.42175C8.54081 2.16974 8.09023 1.98296 7.61916 1.86797L7.42139 0H5.55506L5.35725 1.86802C4.88617 1.983 4.43559 2.16978 4.02131 2.4218L2.56022 1.2405L1.2405 2.56022L2.4218 4.02131C2.16979 4.43559 1.98301 4.88617 1.86802 5.35725L0 5.55502V7.42134L1.86802 7.61916C1.983 8.09024 2.16978 8.54082 2.4218 8.95509L1.2405 10.4162L2.56022 11.7359L4.02131 10.5546C4.43559 10.8066 4.88617 10.9934 5.35725 11.1084L5.55506 12.9764H7.42139L7.60781 11.2158L7.07016 10.5508L7.96481 9.65611L9.65616 7.96477L10.5508 7.07011L11.2158 7.60777L12.9764 7.42134V5.55502L11.1084 5.3572ZM6.4882 8.67455C5.2807 8.67455 4.30186 7.6957 4.30186 6.4882C4.30186 5.2807 5.2807 4.30186 6.4882 4.30186C7.6957 4.30186 8.67455 5.2807 8.67455 6.4882C8.67455 7.6957 7.6957 8.67455 6.4882 8.67455Z" fill="#8C8C8C"/>
</g>
<defs>
<clipPath id="clip0_14389_12115">
<rect width="24" height="24" fill="white"/>
</clipPath>
</defs>
</svg>
