<svg width="32" height="32" viewBox="0 0 32 32" fill="none" xmlns="http://www.w3.org/2000/svg">
<path d="M19.3106 7.15725C20.7902 8.08494 21.8277 9.65479 22.0166 11.477C22.6371 11.7689 23.3142 11.9205 23.9998 11.9211C26.592 11.9211 28.693 9.82012 28.693 7.22833C28.693 4.63614 26.592 2.53516 23.9998 2.53516C21.4324 2.53595 19.3498 4.5994 19.3106 7.15725ZM16.236 16.7664C18.8282 16.7664 20.9292 14.665 20.9292 12.0733C20.9292 9.48147 18.8278 7.38048 16.236 7.38048C13.6442 7.38048 11.542 9.48187 11.542 12.0737C11.542 14.6654 13.6442 16.7664 16.236 16.7664ZM18.2268 17.0863H14.2445C10.931 17.0863 8.23542 19.7823 8.23542 23.0957V27.9658L8.2478 28.0421L8.58325 28.1471C11.7453 29.1351 14.4924 29.4646 16.7536 29.4646C21.17 29.4646 23.7298 28.2054 23.8876 28.1252L24.2011 27.9666H24.2346V23.0957C24.2358 19.7823 21.5402 17.0863 18.2268 17.0863ZM25.9914 12.2414H22.0398C21.9996 13.7672 21.358 15.2153 20.2547 16.27C23.1999 17.1458 25.3548 19.877 25.3548 23.1029V24.6037C29.2565 24.4607 31.5048 23.3549 31.653 23.2806L31.9665 23.1217H32V18.25C32 14.937 29.3044 12.2414 25.9914 12.2414ZM8.001 11.9219C8.91911 11.9219 9.77332 11.6539 10.4969 11.1975C10.724 9.72885 11.5053 8.40312 12.6802 7.4931C12.685 7.40524 12.6934 7.31818 12.6934 7.22953C12.6934 4.63734 10.592 2.53635 8.001 2.53635C5.40841 2.53635 3.30782 4.63734 3.30782 7.22953C3.30782 9.82052 5.40841 11.9219 8.001 11.9219ZM12.2157 16.27C11.1186 15.2203 10.4779 13.7815 10.4318 12.2637C10.2853 12.253 10.1403 12.2414 9.99096 12.2414H6.00904C2.69562 12.2414 0 14.937 0 18.25V23.1209L0.0123799 23.196L0.347835 23.3018C2.88451 24.0937 5.14843 24.4587 7.11484 24.5737V23.1029C7.11564 19.877 9.26974 17.1466 12.2157 16.27Z" fill="#135393"/>
</svg>
