<svg width="24" height="24" viewBox="0 0 24 24" fill="none" xmlns="http://www.w3.org/2000/svg">
<path fill-rule="evenodd" clip-rule="evenodd" d="M16.7914 19.8861V21.2105C16.7914 21.4199 16.7082 21.6207 16.5602 21.7688C16.4121 21.9169 16.2113 22.0001 16.0018 22.0001C15.7924 22.0001 15.5916 21.9169 15.4435 21.7688C15.2955 21.6207 15.2123 21.4199 15.2123 21.2105V19.8946H16.5282C16.6167 19.8946 16.704 19.8914 16.7914 19.8861ZM15.2123 19.8946H8.10619C7.05916 19.8946 6.05501 19.4786 5.31465 18.7383C4.57429 17.9979 4.15836 16.9938 4.15836 15.9467V12.7021L10.1738 16.0257C10.8326 16.3802 11.5691 16.5657 12.3172 16.5657C13.0653 16.5657 13.8018 16.3802 14.4606 16.0257L15.2123 15.6109V19.8946ZM16.7914 14.7382L20.4761 12.7021V15.9467C20.4761 16.9483 20.0956 17.9124 19.4114 18.6438C18.7273 19.3753 17.7907 19.8194 16.7914 19.8861V14.7382Z" fill="#3F93E6"/>
<path fill-rule="evenodd" clip-rule="evenodd" d="M15.2122 14.4074L13.951 15.1043C13.4489 15.3749 12.8875 15.5165 12.3171 15.5165C11.7468 15.5165 11.1853 15.3749 10.6832 15.1043L1.93064 10.268C1.33478 9.93848 1 9.36157 1 8.75834C1 8.15406 1.33478 7.57716 1.93064 7.2487L10.6832 2.4113C11.1855 2.14131 11.7469 2 12.3171 2C12.8874 2 13.4487 2.14131 13.951 2.4113L22.7036 7.2487C23.2995 7.57716 23.6342 8.15406 23.6342 8.75834C23.6342 9.36157 23.2995 9.93848 22.7036 10.268L16.7913 13.5347V12.7883C16.7914 12.6846 16.771 12.5819 16.7312 12.4862C16.6915 12.3904 16.6332 12.3035 16.5597 12.2303L12.8751 8.54569C12.8018 8.47242 12.7148 8.41429 12.6191 8.37464C12.5233 8.33498 12.4207 8.31457 12.3171 8.31457C12.2135 8.31457 12.1109 8.33498 12.0152 8.37464C11.9194 8.41429 11.8324 8.47242 11.7592 8.54569C11.6859 8.61896 11.6278 8.70595 11.5881 8.80168C11.5485 8.89742 11.528 9.00002 11.528 9.10365C11.528 9.20727 11.5485 9.30988 11.5881 9.40561C11.6278 9.50135 11.6859 9.58833 11.7592 9.66161L15.2122 13.1157V14.4074Z" fill="#3F93E6"/>
</svg>
