<svg width="32" height="32" viewBox="0 0 32 32" fill="none" xmlns="http://www.w3.org/2000/svg">
<path fill-rule="evenodd" clip-rule="evenodd" d="M21.7087 28.1461V29.934C21.7087 30.2167 21.5964 30.4878 21.3965 30.6877C21.1966 30.8876 20.9255 30.9999 20.6428 30.9999C20.3601 30.9999 20.089 30.8876 19.8891 30.6877C19.6892 30.4878 19.5769 30.2167 19.5769 29.934V28.1575H21.3534C21.4728 28.1575 21.5907 28.1532 21.7087 28.1461ZM19.5769 28.1575H9.98363C8.57014 28.1575 7.21454 27.596 6.21505 26.5965C5.21556 25.597 4.65405 24.2414 4.65405 22.8279V18.4478L12.7749 22.9345C13.6643 23.4131 14.6585 23.6636 15.6685 23.6636C16.6785 23.6636 17.6727 23.4131 18.5621 22.9345L19.5769 22.3746V28.1575ZM21.7087 21.1964L26.683 18.4478V22.8279C26.6831 24.18 26.1693 25.4816 25.2457 26.469C24.3221 27.4565 23.0577 28.056 21.7087 28.1461V21.1964Z" fill="#135393"/>
<path fill-rule="evenodd" clip-rule="evenodd" d="M19.5766 20.75L17.874 21.6908C17.1961 22.056 16.4382 22.2472 15.6682 22.2472C14.8983 22.2472 14.1404 22.056 13.4625 21.6908L1.64649 15.1618C0.842085 14.7169 0.390137 13.9381 0.390137 13.1237C0.390137 12.308 0.842085 11.5291 1.64649 11.0857L13.4625 4.55525C14.1406 4.19077 14.8984 4 15.6682 4C16.4381 4 17.1959 4.19077 17.874 4.55525L29.69 11.0857C30.4944 11.5291 30.9464 12.308 30.9464 13.1237C30.9464 13.9381 30.4944 14.7169 29.69 15.1618L21.7084 19.5718V18.5642C21.7085 18.4242 21.681 18.2856 21.6273 18.1563C21.5736 18.027 21.495 17.9097 21.3958 17.8109L16.4215 12.8367C16.3226 12.7377 16.2051 12.6593 16.0759 12.6057C15.9467 12.5522 15.8081 12.5247 15.6682 12.5247C15.5284 12.5247 15.3898 12.5522 15.2606 12.6057C15.1313 12.6593 15.0139 12.7377 14.915 12.8367C14.8161 12.9356 14.7376 13.053 14.6841 13.1823C14.6305 13.3115 14.603 13.45 14.603 13.5899C14.603 13.7298 14.6305 13.8683 14.6841 13.9976C14.7376 14.1268 14.8161 14.2442 14.915 14.3431L19.5766 19.0062V20.75Z" fill="#135393"/>
</svg>
