<svg width="20" height="20" viewBox="0 0 20 20" fill="none" xmlns="http://www.w3.org/2000/svg">
<path fill-rule="evenodd" clip-rule="evenodd" d="M18.125 10.0001L18.6438 9.7401V9.7376L18.64 9.73385L18.6325 9.71885L18.6063 9.66885L18.5063 9.48885C18.3842 9.27835 18.2546 9.07238 18.1175 8.87135C17.6602 8.20004 17.1344 7.57796 16.5488 7.0151C15.1413 5.6651 12.975 4.2876 10 4.2876C7.02751 4.2876 4.86001 5.66385 3.45251 7.0151C2.86684 7.57796 2.34111 8.20004 1.88376 8.87135C1.69818 9.14516 1.52631 9.428 1.36876 9.71885L1.36126 9.73385L1.35876 9.7376V9.73885C1.35876 9.73885 1.35751 9.7401 1.87626 10.0001L1.35751 9.73885C1.3174 9.81987 1.29654 9.90906 1.29654 9.99947C1.29654 10.0899 1.3174 10.1791 1.35751 10.2601L1.35626 10.2626L1.36001 10.2663L1.36751 10.2813C1.40649 10.3594 1.44818 10.4362 1.49251 10.5113C2.03076 11.4206 2.6892 12.2531 3.45001 12.9863C4.85876 14.3363 7.02501 15.7113 10 15.7113C12.9738 15.7113 15.1413 14.3363 16.55 12.9851C17.1346 12.4216 17.6598 11.7996 18.1175 11.1288C18.2928 10.8708 18.4559 10.6047 18.6063 10.3313L18.6325 10.2813L18.64 10.2663L18.6425 10.2626V10.2613C18.6425 10.2613 18.6438 10.2601 18.125 10.0001ZM18.125 10.0001L18.6438 10.2613C18.6839 10.1803 18.7047 10.0911 18.7047 10.0007C18.7047 9.91031 18.6839 9.82112 18.6438 9.7401L18.125 10.0001ZM9.92501 8.0801C9.4158 8.0801 8.92744 8.28238 8.56737 8.64245C8.2073 9.00252 8.00501 9.49088 8.00501 10.0001C8.00501 10.5093 8.2073 10.9977 8.56737 11.3577C8.92744 11.7178 9.4158 11.9201 9.92501 11.9201C10.4342 11.9201 10.9226 11.7178 11.2827 11.3577C11.6427 10.9977 11.845 10.5093 11.845 10.0001C11.845 9.49088 11.6427 9.00252 11.2827 8.64245C10.9226 8.28238 10.4342 8.0801 9.92501 8.0801ZM6.84751 10.0001C6.84751 9.18323 7.17201 8.39982 7.74962 7.82221C8.32724 7.2446 9.11065 6.9201 9.92751 6.9201C10.7444 6.9201 11.5278 7.2446 12.1054 7.82221C12.683 8.39982 13.0075 9.18323 13.0075 10.0001C13.0075 10.817 12.683 11.6004 12.1054 12.178C11.5278 12.7556 10.7444 13.0801 9.92751 13.0801C9.11065 13.0801 8.32724 12.7556 7.74962 12.178C7.17201 11.6004 6.84751 10.817 6.84751 10.0001Z" fill="#8C8C8C"/>
</svg>
