<svg width="20" height="20" viewBox="0 0 20 20" fill="none" xmlns="http://www.w3.org/2000/svg">
<path d="M10 12.9791C9.8889 12.9791 9.78473 12.9619 9.68751 12.9274C9.59029 12.893 9.50001 12.8338 9.41668 12.7499L6.41668 9.74992C6.25001 9.58325 6.17001 9.38881 6.17668 9.16659C6.18334 8.94437 6.26334 8.74992 6.41668 8.58325C6.58334 8.41659 6.7814 8.32992 7.01084 8.32325C7.24029 8.31659 7.43807 8.39631 7.60418 8.56242L9.16668 10.1249V4.16659C9.16668 3.93048 9.24668 3.7327 9.40668 3.57325C9.56668 3.41381 9.76445 3.33381 10 3.33325C10.2356 3.3327 10.4336 3.4127 10.5942 3.57325C10.7547 3.73381 10.8345 3.93159 10.8333 4.16659V10.1249L12.3958 8.56242C12.5625 8.39575 12.7606 8.31576 12.99 8.32242C13.2195 8.32909 13.4172 8.41603 13.5833 8.58325C13.7361 8.74992 13.8161 8.94437 13.8233 9.16659C13.8306 9.38881 13.7506 9.58325 13.5833 9.74992L10.5833 12.7499C10.5 12.8333 10.4097 12.8924 10.3125 12.9274C10.2153 12.9624 10.1111 12.9796 10 12.9791ZM5.00001 16.6666C4.54168 16.6666 4.14945 16.5035 3.82334 16.1774C3.49723 15.8513 3.3339 15.4588 3.33334 14.9999V13.3333C3.33334 13.0971 3.41334 12.8994 3.57334 12.7399C3.73334 12.5805 3.93112 12.5005 4.16668 12.4999C4.40223 12.4994 4.60029 12.5794 4.76084 12.7399C4.9214 12.9005 5.00112 13.0983 5.00001 13.3333V14.9999H15V13.3333C15 13.0971 15.08 12.8994 15.24 12.7399C15.4 12.5805 15.5978 12.5005 15.8333 12.4999C16.0689 12.4994 16.267 12.5794 16.4275 12.7399C16.5881 12.9005 16.6678 13.0983 16.6667 13.3333V14.9999C16.6667 15.4583 16.5036 15.8508 16.1775 16.1774C15.8514 16.5041 15.4589 16.6671 15 16.6666H5.00001Z" fill="#8C8C8C"/>
</svg>
