<svg width="24" height="24" viewBox="0 0 24 24" fill="none" xmlns="http://www.w3.org/2000/svg">
<path d="M12.4893 4.92006H15.1386L11.0836 0.654297V3.50889C11.0836 4.28219 11.7107 4.92011 12.4892 4.92011L12.4893 4.92006Z" fill="#8D4BFF"/>
<path d="M8.09384 15.6791H3.39537C3.15748 15.6791 2.96286 15.4847 2.96286 15.2467C2.96286 15.0088 3.15748 14.8141 3.39537 14.8141H8.38034C8.65597 14.1114 9.02361 13.5165 9.47787 12.9218H3.39537C3.15748 12.9218 2.96286 12.7273 2.96286 12.4892C2.96286 12.2514 3.15748 12.0568 3.39537 12.0568H10.2997C11.5972 10.9213 13.3166 10.197 15.1926 10.197C15.371 10.197 15.5171 10.2131 15.7334 10.2294V5.78503H12.4893C11.235 5.78503 10.2186 4.75781 10.2186 3.50883V0H1.92481C0.854234 0 3.05176e-05 0.875813 3.05176e-05 1.95173V18.4528C3.05176e-05 19.5287 0.854234 20.3829 1.92486 20.3829H8.43973C8.06675 19.518 7.8613 18.5447 7.8613 17.5283C7.85581 16.8904 7.94239 16.2739 8.09384 15.6791ZM3.39537 9.35344H8.87239C9.11028 9.35344 9.30491 9.54806 9.30491 9.78609C9.30491 10.024 9.11028 10.2186 8.87239 10.2186H3.39537C3.15748 10.2186 2.96286 10.024 2.96286 9.78614C2.96286 9.54806 3.15748 9.35349 3.39537 9.35349V9.35344Z" fill="#8D4BFF"/>
<path d="M15.1871 11.0781C11.6243 11.0781 8.72626 13.9759 8.72626 17.539C8.72626 21.1019 11.6243 23.9999 15.1871 23.9999C18.7502 23.9999 21.6482 21.1019 21.6482 17.539C21.6482 13.9759 18.7502 11.0781 15.1871 11.0781ZM18.6422 17.6362C18.5611 17.712 18.4529 17.7499 18.3502 17.7499C18.2366 17.7499 18.1231 17.7012 18.0365 17.6146L15.6252 15.0195V21.1938C15.6252 21.4318 15.4306 21.6265 15.1927 21.6265C14.9548 21.6265 14.7602 21.4318 14.7602 21.1938V15.0142L12.3381 17.6093C12.1758 17.7823 11.8946 17.7932 11.7216 17.6309C11.5487 17.4687 11.5377 17.1929 11.7 17.0199L14.8682 13.6191C14.9493 13.5326 15.0629 13.4839 15.1872 13.4839C15.3117 13.4839 15.4197 13.5327 15.5064 13.6191L18.6746 17.0199C18.826 17.1985 18.8151 17.4742 18.6422 17.6363V17.6362Z" fill="#8D4BFF"/>
</svg>
