<svg width="24" height="24" viewBox="0 0 24 24" fill="none" xmlns="http://www.w3.org/2000/svg">
<g clip-path="url(#clip0_14389_12111)">
<path fill-rule="evenodd" clip-rule="evenodd" d="M16.2305 17.7787V16.5309C16.2305 14.7117 15.4345 13.0696 14.1736 11.9362C14.7769 11.377 15.5836 11.0338 16.4709 11.0338C17.4038 11.0338 18.2489 11.4126 18.8588 12.0224C19.47 12.6337 19.8488 13.4788 19.8488 14.4103C19.8488 15.3431 19.47 16.1882 18.8588 16.7981C18.2489 17.4093 17.4038 17.7881 16.4709 17.7881C16.3903 17.7881 16.3106 17.7853 16.2305 17.7787ZM23.7661 13.4071L22.7484 13.0762C22.6341 13.0392 22.5544 12.9538 22.5253 12.8395C22.3777 12.2723 22.1531 11.7351 21.8634 11.2438C21.8025 11.1403 21.7983 11.0231 21.8527 10.9171L22.3392 9.96322C22.4072 9.83057 22.3833 9.67494 22.2769 9.56994L21.3136 8.60525C21.2086 8.50025 21.053 8.47635 20.9203 8.54432L19.9664 9.03041C19.86 9.08338 19.7433 9.08104 19.6397 9.01963C19.1411 8.72612 18.604 8.50336 18.0441 8.35775C17.9297 8.32869 17.8448 8.249 17.8073 8.13463L17.4764 7.11697C17.43 6.97494 17.3039 6.88307 17.1534 6.88307H15.7913C15.6413 6.88307 15.5147 6.97494 15.4683 7.11697L15.1373 8.13463C15.1003 8.249 15.015 8.32869 14.8997 8.35775C14.3401 8.50354 13.8034 8.72629 13.305 9.01963C13.2014 9.08057 13.0842 9.08338 12.9783 9.03041L12.0244 8.54432C11.8917 8.47635 11.7361 8.50025 11.6311 8.60525L10.6664 9.56994C10.5614 9.67494 10.5375 9.83057 10.6055 9.96322L10.8272 10.3992C11.8331 10.5267 12.7645 10.8988 13.5619 11.4515C14.3114 10.7156 15.3384 10.2595 16.4719 10.2595C17.6184 10.2595 18.6562 10.7245 19.4072 11.4754C20.1591 12.2273 20.6231 13.2651 20.6231 14.4107C20.6231 15.5573 20.1595 16.5951 19.4072 17.346C18.6562 18.0979 17.6189 18.562 16.4719 18.562C16.3908 18.562 16.3111 18.5606 16.2314 18.5554V21.1171C16.2314 21.4176 16.1475 21.6993 16.0017 21.9398H17.1539C17.3039 21.9398 17.4305 21.8479 17.4769 21.7059L17.8078 20.6868C17.8448 20.5738 17.9302 20.4942 18.0445 20.4637C18.6117 20.3174 19.1489 20.0929 19.6402 19.8032C19.7437 19.7423 19.8609 19.7381 19.9669 19.7924L20.9208 20.279C21.0534 20.347 21.2091 20.3231 21.3141 20.2167L22.2773 19.2534C22.3837 19.1484 22.4077 18.9928 22.3397 18.8601L21.8531 17.9048C21.7988 17.7984 21.8025 17.6831 21.8639 17.5795C22.1575 17.0811 22.3799 16.544 22.5244 15.9838C22.5548 15.8695 22.6345 15.7832 22.7475 15.7471L23.7666 15.4162C23.9086 15.3698 24.0005 15.2437 24.0005 15.0932V13.731C24 13.5796 23.9081 13.4535 23.7661 13.4071ZM6.87094 16.1723L7.72781 17.6924L8.58469 16.1723L8.15953 11.1243H7.29703L6.87094 16.1723ZM10.0481 11.1243H8.93578L9.36609 16.2238H9.36469C9.36984 16.2984 9.35531 16.3753 9.31547 16.4446L8.06531 18.6623C8.03071 18.7248 7.97922 18.7763 7.91672 18.8109C7.73203 18.9159 7.49672 18.8493 7.39172 18.6646L6.1575 16.476C6.10828 16.4043 6.08156 16.3167 6.08953 16.2234L6.51984 11.1238H5.4075C2.43328 11.1243 0 13.5571 0 16.5309V21.1162C0 21.5681 0.370781 21.9388 0.824062 21.9388H3.39094V18.7007C3.39094 18.487 3.56391 18.314 3.77766 18.314C3.99141 18.314 4.16437 18.487 4.16437 18.7007V21.9388H11.2917V18.7007C11.2917 18.487 11.4642 18.314 11.6784 18.314C11.8922 18.314 12.0666 18.487 12.0666 18.7007V21.9388H14.6339C15.0858 21.9388 15.4566 21.5681 15.4566 21.1162V16.5309C15.4561 13.5571 13.0233 11.1243 10.0481 11.1243ZM7.72828 9.69604C9.83016 9.69604 11.5458 7.98041 11.5458 5.87854C11.5458 3.77525 9.83016 2.06104 7.72828 2.06104C5.62641 2.06104 3.91078 3.77525 3.91078 5.87854C3.91078 7.98041 5.62594 9.69604 7.72828 9.69604Z" fill="#8C8C8C"/>
</g>
<defs>
<clipPath id="clip0_14389_12111">
<rect width="24" height="24" fill="white"/>
</clipPath>
</defs>
</svg>
