<svg width="89" height="15" viewBox="0 0 89 15" fill="none" xmlns="http://www.w3.org/2000/svg">
<path d="M0.676136 1.91193V0.818182H8.3125V1.91193H5.1108V11H3.87784V1.91193H0.676136ZM12.0511 11.1591C11.3617 11.1591 10.7569 10.995 10.2365 10.6669C9.71946 10.3388 9.3151 9.87973 9.02344 9.28977C8.73509 8.69981 8.59091 8.01042 8.59091 7.22159C8.59091 6.42614 8.73509 5.73177 9.02344 5.13849C9.3151 4.54522 9.71946 4.08452 10.2365 3.75639C10.7569 3.42827 11.3617 3.2642 12.0511 3.2642C12.7405 3.2642 13.3438 3.42827 13.8608 3.75639C14.3812 4.08452 14.7855 4.54522 15.0739 5.13849C15.3655 5.73177 15.5114 6.42614 15.5114 7.22159C15.5114 8.01042 15.3655 8.69981 15.0739 9.28977C14.7855 9.87973 14.3812 10.3388 13.8608 10.6669C13.3438 10.995 12.7405 11.1591 12.0511 11.1591ZM12.0511 10.1051C12.5748 10.1051 13.0057 9.97088 13.3438 9.70241C13.6818 9.43395 13.9321 9.08097 14.0945 8.64347C14.2569 8.20597 14.3381 7.73201 14.3381 7.22159C14.3381 6.71117 14.2569 6.23556 14.0945 5.79474C13.9321 5.35393 13.6818 4.99763 13.3438 4.72585C13.0057 4.45407 12.5748 4.31818 12.0511 4.31818C11.5275 4.31818 11.0966 4.45407 10.7585 4.72585C10.4205 4.99763 10.1702 5.35393 10.0078 5.79474C9.84541 6.23556 9.7642 6.71117 9.7642 7.22159C9.7642 7.73201 9.84541 8.20597 10.0078 8.64347C10.1702 9.08097 10.4205 9.43395 10.7585 9.70241C11.0966 9.97088 11.5275 10.1051 12.0511 10.1051ZM20.6234 3.36364V4.35795H16.666V3.36364H20.6234ZM17.8194 1.53409H18.9927V8.8125C18.9927 9.14394 19.0408 9.39252 19.1369 9.55824C19.2363 9.72064 19.3623 9.83002 19.5147 9.88636C19.6705 9.93939 19.8346 9.96591 20.0069 9.96591C20.1362 9.96591 20.2422 9.95928 20.3251 9.94602C20.408 9.92945 20.4743 9.91619 20.524 9.90625L20.7626 10.9602C20.6831 10.9901 20.572 11.0199 20.4295 11.0497C20.287 11.0829 20.1064 11.0994 19.8876 11.0994C19.5562 11.0994 19.2314 11.0282 18.9132 10.8857C18.5983 10.7431 18.3365 10.526 18.1277 10.2344C17.9222 9.94271 17.8194 9.57481 17.8194 9.13068V1.53409ZM24.6355 11.179C24.1516 11.179 23.7124 11.0878 23.318 10.9055C22.9236 10.7199 22.6104 10.4531 22.3784 10.1051C22.1464 9.75379 22.0304 9.32955 22.0304 8.83239C22.0304 8.39489 22.1165 8.04025 22.2889 7.76847C22.4612 7.49337 22.6916 7.27794 22.9799 7.12216C23.2683 6.96638 23.5865 6.85038 23.9345 6.77415C24.2858 6.6946 24.6388 6.63163 24.9934 6.58523C25.4574 6.52557 25.8336 6.48082 26.122 6.45099C26.4136 6.41785 26.6258 6.36316 26.7583 6.28693C26.8942 6.2107 26.9622 6.07812 26.9622 5.8892V5.84943C26.9622 5.3589 26.8279 4.97775 26.5595 4.70597C26.2943 4.43419 25.8916 4.2983 25.3514 4.2983C24.7913 4.2983 24.3521 4.42093 24.0339 4.66619C23.7157 4.91146 23.492 5.1733 23.3627 5.4517L22.2491 5.05398C22.448 4.58996 22.7131 4.22869 23.0446 3.97017C23.3793 3.70833 23.7439 3.52604 24.1383 3.4233C24.536 3.31723 24.9271 3.2642 25.3116 3.2642C25.5569 3.2642 25.8386 3.29403 26.1568 3.35369C26.4783 3.41004 26.7882 3.5277 27.0865 3.70668C27.3881 3.88565 27.6383 4.15578 27.8372 4.51705C28.036 4.87831 28.1355 5.36222 28.1355 5.96875V11H26.9622V9.96591H26.9025C26.823 10.1316 26.6904 10.3089 26.5048 10.4979C26.3192 10.6868 26.0723 10.8475 25.764 10.9801C25.4558 11.1127 25.0796 11.179 24.6355 11.179ZM24.8145 10.125C25.2785 10.125 25.6696 10.0339 25.9877 9.85156C26.3092 9.66927 26.5512 9.43395 26.7136 9.1456C26.8793 8.85724 26.9622 8.55398 26.9622 8.2358V7.16193C26.9125 7.22159 26.8031 7.27628 26.6341 7.32599C26.4683 7.3724 26.2761 7.41383 26.0574 7.45028C25.8419 7.48343 25.6315 7.51326 25.426 7.53977C25.2238 7.56297 25.0597 7.58286 24.9338 7.59943C24.6288 7.6392 24.3438 7.70384 24.0787 7.79332C23.8168 7.8795 23.6047 8.01042 23.4423 8.18608C23.2832 8.35843 23.2037 8.59375 23.2037 8.89205C23.2037 9.29972 23.3545 9.60795 23.6561 9.81676C23.961 10.0223 24.3471 10.125 24.8145 10.125ZM31.4503 0.818182V11H30.277V0.818182H31.4503ZM37.139 1.91193V0.818182H44.7754V1.91193H41.5737V11H40.3407V1.91193H37.139ZM45.7262 11V3.36364H46.8597V4.51705H46.9393C47.0785 4.1392 47.3304 3.83262 47.695 3.5973C48.0595 3.36198 48.4705 3.24432 48.9279 3.24432C49.0141 3.24432 49.1218 3.24597 49.2511 3.24929C49.3803 3.2526 49.4781 3.25758 49.5444 3.2642V4.45739C49.5046 4.44744 49.4135 4.43253 49.271 4.41264C49.1317 4.38944 48.9843 4.37784 48.8285 4.37784C48.4573 4.37784 48.1258 4.45573 47.8342 4.61151C47.5458 4.76397 47.3171 4.97609 47.1481 5.24787C46.9824 5.51634 46.8995 5.82292 46.8995 6.16761V11H45.7262ZM53.1824 11.179C52.6984 11.179 52.2593 11.0878 51.8649 10.9055C51.4705 10.7199 51.1573 10.4531 50.9252 10.1051C50.6932 9.75379 50.5772 9.32955 50.5772 8.83239C50.5772 8.39489 50.6634 8.04025 50.8358 7.76847C51.0081 7.49337 51.2385 7.27794 51.5268 7.12216C51.8152 6.96638 52.1333 6.85038 52.4814 6.77415C52.8327 6.6946 53.1857 6.63163 53.5403 6.58523C54.0043 6.52557 54.3805 6.48082 54.6689 6.45099C54.9605 6.41785 55.1726 6.36316 55.3052 6.28693C55.4411 6.2107 55.5091 6.07812 55.5091 5.8892V5.84943C55.5091 5.3589 55.3748 4.97775 55.1064 4.70597C54.8412 4.43419 54.4385 4.2983 53.8983 4.2983C53.3381 4.2983 52.899 4.42093 52.5808 4.66619C52.2626 4.91146 52.0389 5.1733 51.9096 5.4517L50.796 5.05398C50.9949 4.58996 51.26 4.22869 51.5914 3.97017C51.9262 3.70833 52.2908 3.52604 52.6852 3.4233C53.0829 3.31723 53.474 3.2642 53.8585 3.2642C54.1038 3.2642 54.3855 3.29403 54.7037 3.35369C55.0252 3.41004 55.335 3.5277 55.6333 3.70668C55.935 3.88565 56.1852 4.15578 56.3841 4.51705C56.5829 4.87831 56.6824 5.36222 56.6824 5.96875V11H55.5091V9.96591H55.4494C55.3699 10.1316 55.2373 10.3089 55.0517 10.4979C54.8661 10.6868 54.6191 10.8475 54.3109 10.9801C54.0027 11.1127 53.6265 11.179 53.1824 11.179ZM53.3613 10.125C53.8253 10.125 54.2164 10.0339 54.5346 9.85156C54.8561 9.66927 55.0981 9.43395 55.2605 9.1456C55.4262 8.85724 55.5091 8.55398 55.5091 8.2358V7.16193C55.4593 7.22159 55.35 7.27628 55.1809 7.32599C55.0152 7.3724 54.823 7.41383 54.6042 7.45028C54.3888 7.48343 54.1783 7.51326 53.9728 7.53977C53.7707 7.56297 53.6066 7.58286 53.4806 7.59943C53.1757 7.6392 52.8907 7.70384 52.6255 7.79332C52.3637 7.8795 52.1516 8.01042 51.9892 8.18608C51.8301 8.35843 51.7505 8.59375 51.7505 8.89205C51.7505 9.29972 51.9013 9.60795 52.2029 9.81676C52.5079 10.0223 52.894 10.125 53.3613 10.125ZM58.8239 11V3.36364H59.9972V11H58.8239ZM59.4205 2.09091C59.1918 2.09091 58.9946 2.01302 58.8288 1.85724C58.6664 1.70147 58.5852 1.5142 58.5852 1.29545C58.5852 1.0767 58.6664 0.889441 58.8288 0.733664C58.9946 0.577888 59.1918 0.5 59.4205 0.5C59.6491 0.5 59.8447 0.577888 60.0071 0.733664C60.1728 0.889441 60.2557 1.0767 60.2557 1.29545C60.2557 1.5142 60.1728 1.70147 60.0071 1.85724C59.8447 2.01302 59.6491 2.09091 59.4205 2.09091ZM63.3194 6.40625V11H62.1461V3.36364H63.2797V4.55682H63.3791C63.5581 4.16903 63.8298 3.85748 64.1944 3.62216C64.559 3.38352 65.0297 3.2642 65.6064 3.2642C66.1234 3.2642 66.5758 3.37027 66.9636 3.58239C67.3514 3.79119 67.653 4.10938 67.8684 4.53693C68.0839 4.96117 68.1916 5.49811 68.1916 6.14773V11H67.0183V6.22727C67.0183 5.62737 66.8625 5.16004 66.551 4.82528C66.2394 4.48722 65.8118 4.31818 65.2683 4.31818C64.8938 4.31818 64.559 4.39938 64.264 4.56179C63.9724 4.72419 63.742 4.96117 63.573 5.27273C63.4039 5.58428 63.3194 5.96212 63.3194 6.40625ZM70.3356 11V3.36364H71.5089V11H70.3356ZM70.9322 2.09091C70.7035 2.09091 70.5063 2.01302 70.3406 1.85724C70.1781 1.70147 70.0969 1.5142 70.0969 1.29545C70.0969 1.0767 70.1781 0.889441 70.3406 0.733664C70.5063 0.577888 70.7035 0.5 70.9322 0.5C71.1609 0.5 71.3564 0.577888 71.5188 0.733664C71.6845 0.889441 71.7674 1.0767 71.7674 1.29545C71.7674 1.5142 71.6845 1.70147 71.5188 1.85724C71.3564 2.01302 71.1609 2.09091 70.9322 2.09091ZM74.8311 6.40625V11H73.6578V3.36364H74.7914V4.55682H74.8908C75.0698 4.16903 75.3416 3.85748 75.7061 3.62216C76.0707 3.38352 76.5414 3.2642 77.1181 3.2642C77.6351 3.2642 78.0875 3.37027 78.4753 3.58239C78.8631 3.79119 79.1647 4.10938 79.3801 4.53693C79.5956 4.96117 79.7033 5.49811 79.7033 6.14773V11H78.53V6.22727C78.53 5.62737 78.3742 5.16004 78.0627 4.82528C77.7511 4.48722 77.3236 4.31818 76.78 4.31818C76.4055 4.31818 76.0707 4.39938 75.7757 4.56179C75.4841 4.72419 75.2537 4.96117 75.0847 5.27273C74.9157 5.58428 74.8311 5.96212 74.8311 6.40625ZM84.9297 14.0227C84.3629 14.0227 83.8757 13.9498 83.468 13.804C83.0604 13.6615 82.7206 13.4725 82.4489 13.2372C82.1804 13.0052 81.9666 12.7566 81.8075 12.4915L82.7422 11.8352C82.8482 11.9744 82.9825 12.1335 83.1449 12.3125C83.3073 12.4948 83.5294 12.6522 83.8111 12.7848C84.0961 12.9207 84.469 12.9886 84.9297 12.9886C85.5462 12.9886 86.0549 12.8395 86.456 12.5412C86.857 12.2429 87.0575 11.7756 87.0575 11.1392V9.58807H86.9581C86.8719 9.72727 86.7493 9.89962 86.5902 10.1051C86.4344 10.3073 86.209 10.4879 85.9141 10.647C85.6224 10.8028 85.228 10.8807 84.7308 10.8807C84.1143 10.8807 83.5608 10.7348 83.0703 10.4432C82.5831 10.1515 82.197 9.72727 81.9119 9.17045C81.6302 8.61364 81.4893 7.9375 81.4893 7.14205C81.4893 6.35985 81.6269 5.67874 81.902 5.09872C82.1771 4.51539 82.5599 4.06463 83.0504 3.74645C83.541 3.42495 84.1077 3.2642 84.7507 3.2642C85.2479 3.2642 85.6423 3.34706 85.9339 3.51278C86.2289 3.67519 86.4543 3.8608 86.6101 4.0696C86.7692 4.27509 86.8918 4.44413 86.978 4.5767H87.0973V3.36364H88.2308V11.2188C88.2308 11.875 88.0817 12.4086 87.7834 12.8196C87.4884 13.2339 87.0907 13.5372 86.5902 13.7294C86.093 13.925 85.5395 14.0227 84.9297 14.0227ZM84.8899 9.8267C85.3606 9.8267 85.7583 9.71899 86.0831 9.50355C86.4079 9.28812 86.6548 8.97822 86.8239 8.57386C86.9929 8.16951 87.0774 7.68561 87.0774 7.12216C87.0774 6.57197 86.9946 6.08641 86.8288 5.66548C86.6631 5.24455 86.4179 4.91477 86.093 4.67614C85.7682 4.4375 85.3672 4.31818 84.8899 4.31818C84.3928 4.31818 83.9785 4.44413 83.647 4.69602C83.3189 4.94792 83.072 5.28598 82.9062 5.71023C82.7438 6.13447 82.6626 6.60511 82.6626 7.12216C82.6626 7.65246 82.7455 8.12145 82.9112 8.52912C83.0803 8.93348 83.3288 9.25166 83.657 9.48366C83.9884 9.71236 84.3994 9.8267 84.8899 9.8267Z" fill="#4D4D4D"/>
</svg>
