<svg width="114" height="116" viewBox="0 0 114 116" fill="none" xmlns="http://www.w3.org/2000/svg">
<path d="M127.415 33.9266C125.911 27.326 123.181 21.0461 119.358 15.3938C119.04 14.9218 118.885 14.3634 118.918 13.8002C118.95 13.2371 119.168 12.6989 119.539 12.2644L128.357 1.94081L116.363 -9.69319L105.713 -1.13945C105.264 -0.777405 104.707 -0.565075 104.123 -0.533825C103.54 -0.502573 102.962 -0.654058 102.474 -0.965902C96.6706 -4.69694 90.1969 -7.33973 83.3888 -8.7573C82.8259 -8.87045 82.3151 -9.15522 81.9311 -9.56998C81.547 -9.98474 81.3099 -10.5077 81.2542 -11.0625L79.9208 -24.4238H63.6819L62.3507 -11.0625C62.2936 -10.5104 62.0553 -9.99057 61.6709 -9.57952C61.2864 -9.16846 60.7761 -8.88785 60.215 -8.77896C53.4063 -7.35734 46.9328 -4.71072 41.1297 -0.976206C40.6429 -0.662998 40.0651 -0.510134 39.4817 -0.540249C38.8984 -0.570364 38.3405 -0.781858 37.8908 -1.14341L27.2425 -9.69424L15.2438 1.93659L24.0638 12.2622C24.4352 12.6964 24.6534 13.2345 24.6863 13.7977C24.7193 14.3609 24.5653 14.9196 24.2468 15.3916C20.4245 21.0443 17.696 27.3249 16.1951 33.9258C16.0727 34.4698 15.7755 34.9621 15.3461 35.3319C14.9168 35.7016 14.3776 35.9297 13.8061 35.9833L0 37.2739V53.7886L13.8063 55.0803C14.379 55.1341 14.9189 55.364 15.3473 55.7363C15.7757 56.1087 16.0702 56.6041 16.1877 57.1502C17.6539 63.7531 20.3836 70.031 24.2354 75.6585C24.5577 76.1309 24.715 76.6913 24.684 77.2569C24.653 77.8226 24.4354 78.3636 24.0632 78.8003L15.2438 89.1249L27.2403 100.757L37.8886 92.2062C38.3367 91.8463 38.892 91.635 39.473 91.6034C40.0539 91.5718 40.6301 91.7215 41.1169 92.0306C46.9445 95.739 53.4196 98.3876 60.2256 99.8468C60.7872 99.9669 61.2951 100.257 61.6763 100.674C62.0576 101.092 62.2926 101.615 62.3477 102.171L63.6797 115.576H79.9186L81.2521 102.171C81.3074 101.616 81.5424 101.092 81.9233 100.675C82.3042 100.257 82.8116 99.9675 83.3727 99.8468C90.1797 98.388 96.6559 95.7397 102.485 92.0316C102.971 91.7225 103.547 91.5727 104.128 91.6043C104.709 91.6358 105.264 91.8471 105.712 92.207L116.359 100.758L128.355 89.1259L119.535 78.8003C119.162 78.3639 118.944 77.8229 118.913 77.2572C118.882 76.6914 119.039 76.131 119.361 75.6585C123.212 70.0308 125.94 63.7529 127.405 57.1502C127.524 56.6035 127.821 56.1081 128.251 55.7359C128.681 55.3636 129.222 55.134 129.796 55.0803L143.603 53.7876V37.2739L129.796 35.9833C129.225 35.9295 128.687 35.7013 128.259 35.3316C127.831 34.9619 127.536 34.4699 127.415 33.9266H127.415ZM71.8023 88.5667C47.2912 88.5667 27.4214 69.2993 27.4214 45.5318C27.4214 21.7643 47.291 2.49685 71.8023 2.49685C96.3123 2.49685 116.18 21.7643 116.18 45.5318C116.152 69.2879 96.2997 88.5398 71.8023 88.5667Z" fill="#3F93E6" fill-opacity="0.08"/>
</svg>
