<svg width="20" height="21" viewBox="0 0 20 21" fill="none" xmlns="http://www.w3.org/2000/svg">
<path d="M10 6.3335V18.0002" stroke="black" stroke-linecap="round" stroke-linejoin="round"/>
<path d="M2.5013 15.5C2.28029 15.5 2.06833 15.4122 1.91205 15.2559C1.75577 15.0996 1.66797 14.8877 1.66797 14.6667V3.83333C1.66797 3.61232 1.75577 3.40036 1.91205 3.24408C2.06833 3.0878 2.28029 3 2.5013 3H6.66797C7.55202 3 8.39987 3.35119 9.02499 3.97631C9.65011 4.60143 10.0013 5.44928 10.0013 6.33333C10.0013 5.44928 10.3525 4.60143 10.9776 3.97631C11.6027 3.35119 12.4506 3 13.3346 3H17.5013C17.7223 3 17.9343 3.0878 18.0906 3.24408C18.2468 3.40036 18.3346 3.61232 18.3346 3.83333V14.6667C18.3346 14.8877 18.2468 15.0996 18.0906 15.2559C17.9343 15.4122 17.7223 15.5 17.5013 15.5H12.5013C11.8383 15.5 11.2024 15.7634 10.7335 16.2322C10.2647 16.7011 10.0013 17.337 10.0013 18C10.0013 17.337 9.73791 16.7011 9.26907 16.2322C8.80023 15.7634 8.16434 15.5 7.5013 15.5H2.5013Z" stroke="black" stroke-linecap="round" stroke-linejoin="round"/>
</svg>
