<svg width="20" height="21" viewBox="0 0 20 21" fill="none" xmlns="http://www.w3.org/2000/svg">
<path d="M14.006 12.779C13.9305 12.7794 13.8573 12.7529 13.7994 12.7043L11.395 10.7571C11.3572 10.7257 11.3268 10.6864 11.3059 10.642C11.285 10.5975 11.2742 10.549 11.2742 10.4999V5.11531C11.2742 5.02788 11.3089 4.94403 11.3707 4.8822C11.4326 4.82038 11.5164 4.78564 11.6038 4.78564C11.6913 4.78564 11.7751 4.82038 11.837 4.8822C11.8988 4.94403 11.9335 5.02788 11.9335 5.11531V10.3439L14.2148 12.1922C14.2691 12.2356 14.3083 12.2951 14.3267 12.3621C14.3452 12.4291 14.342 12.5002 14.3176 12.5653C14.2932 12.6304 14.2489 12.6861 14.191 12.7245C14.1331 12.7629 14.0645 12.782 13.995 12.779H14.006ZM8.29395 14.0999H4.61702C4.52959 14.0999 4.44574 14.0652 4.38391 14.0034C4.32209 13.9415 4.28735 13.8577 4.28735 13.7703C4.28735 13.6828 4.32209 13.599 4.38391 13.5371C4.44574 13.4753 4.52959 13.4406 4.61702 13.4406H8.29395C8.38138 13.4406 8.46524 13.4753 8.52706 13.5371C8.58889 13.599 8.62362 13.6828 8.62362 13.7703C8.62362 13.8577 8.58889 13.9415 8.52706 14.0034C8.46524 14.0652 8.38138 14.0999 8.29395 14.0999ZM6.80164 10.5615H0.614827C0.527393 10.5615 0.44354 10.5267 0.381714 10.4649C0.319889 10.4031 0.285156 10.3192 0.285156 10.2318C0.285156 10.1444 0.319889 10.0605 0.381714 9.99869C0.44354 9.93686 0.527393 9.90213 0.614827 9.90213H6.80164C6.88908 9.90213 6.97293 9.93686 7.03475 9.99869C7.09658 10.0605 7.13131 10.1444 7.13131 10.2318C7.13131 10.3192 7.09658 10.4031 7.03475 10.4649C6.97293 10.5267 6.88908 10.5615 6.80164 10.5615ZM4.44779 6.98345H2.24999C2.16256 6.98345 2.0787 6.94871 2.01688 6.88689C1.95505 6.82506 1.92032 6.74121 1.92032 6.65378C1.92032 6.56634 1.95505 6.48249 2.01688 6.42066C2.0787 6.35884 2.16256 6.32411 2.24999 6.32411H4.44779C4.53523 6.32411 4.61908 6.35884 4.68091 6.42066C4.74273 6.48249 4.77746 6.56634 4.77746 6.65378C4.77746 6.74121 4.74273 6.82506 4.68091 6.88689C4.61908 6.94871 4.53523 6.98345 4.44779 6.98345ZM11.6038 16.7637C11.5164 16.7637 11.4326 16.7289 11.3707 16.6671C11.3089 16.6053 11.2742 16.5214 11.2742 16.434V16.3681C11.2742 16.2806 11.3089 16.1968 11.3707 16.1349C11.4326 16.0731 11.5164 16.0384 11.6038 16.0384C11.6913 16.0384 11.7751 16.0731 11.837 16.1349C11.8988 16.1968 11.9335 16.2806 11.9335 16.3681V16.434C11.9335 16.5214 11.8988 16.6053 11.837 16.6671C11.7751 16.7289 11.6913 16.7637 11.6038 16.7637ZM17.7445 10.8296H17.6786C17.5911 10.8296 17.5073 10.7949 17.4455 10.733C17.3836 10.6712 17.3489 10.5874 17.3489 10.4999C17.3489 10.4125 17.3836 10.3286 17.4455 10.2668C17.5073 10.205 17.5911 10.1703 17.6786 10.1703H17.7445C17.8319 10.1703 17.9158 10.205 17.9776 10.2668C18.0394 10.3286 18.0742 10.4125 18.0742 10.4999C18.0742 10.5874 18.0394 10.6712 17.9776 10.733C17.9158 10.7949 17.8319 10.8296 17.7445 10.8296Z" fill="black"/>
<path d="M3.91604 11.8976C3.83667 11.8978 3.75993 11.8691 3.7001 11.817C3.64027 11.7648 3.60142 11.6927 3.59076 11.6141C3.54007 11.2448 3.51583 10.8725 3.51823 10.4998C3.51823 10.4123 3.55297 10.3285 3.61479 10.2667C3.67662 10.2048 3.76047 10.1701 3.84791 10.1701C3.93534 10.1701 4.01919 10.2048 4.08102 10.2667C4.14284 10.3285 4.17758 10.4123 4.17758 10.4998C4.17761 10.8416 4.20111 11.1831 4.24791 11.5218C4.25374 11.5653 4.25082 11.6095 4.23933 11.6519C4.22783 11.6942 4.20799 11.7339 4.18097 11.7685C4.15395 11.8031 4.12029 11.8319 4.08196 11.8534C4.04364 11.8748 4.00142 11.8883 3.9578 11.8932L3.91604 11.8976ZM11.6039 18.5899C10.5166 18.5937 9.43987 18.3765 8.43905 17.9515C7.43824 17.5265 6.53425 16.9025 5.78197 16.1174C5.73181 16.0529 5.70738 15.9721 5.71342 15.8906C5.71946 15.8091 5.75554 15.7328 5.81466 15.6764C5.87379 15.62 5.95174 15.5876 6.03341 15.5854C6.11509 15.5832 6.19466 15.6115 6.2567 15.6646C6.94772 16.3852 7.77813 16.9577 8.69739 17.3473C9.61666 17.7368 10.6056 17.9353 11.6039 17.9306C12.9284 17.9302 14.2286 17.5758 15.3701 16.9042C16.5116 16.2326 17.4528 15.268 18.0964 14.1105C18.74 12.9529 19.0624 11.6444 19.0304 10.3204C18.9985 8.99632 18.6132 7.70489 17.9145 6.57975C17.2158 5.45461 16.2291 4.53666 15.0565 3.92091C13.8839 3.30517 12.5681 3.01401 11.2452 3.07758C9.9223 3.14114 8.64043 3.55713 7.53229 4.28246C6.42414 5.0078 5.53 6.01613 4.94241 7.20308C4.90336 7.28148 4.83476 7.34115 4.75171 7.36897C4.66865 7.39679 4.57795 7.39048 4.49955 7.35143C4.42115 7.31238 4.36148 7.24378 4.33366 7.16073C4.30584 7.07767 4.31215 6.98697 4.3512 6.90857C4.99096 5.61571 5.96467 4.51735 7.17152 3.72723C8.37837 2.9371 9.77448 2.48392 11.2153 2.41462C12.6561 2.34532 14.0893 2.66241 15.3664 3.33306C16.6435 4.00371 17.7182 5.00354 18.479 6.22903C19.2399 7.45453 19.6594 8.86113 19.6941 10.3032C19.7287 11.7453 19.3773 13.1704 18.6761 14.431C17.975 15.6917 16.9496 16.7419 15.7062 17.4732C14.4627 18.2044 13.0464 18.5899 11.6039 18.5899ZM2.7578 14.0998H2.1578C2.07036 14.0998 1.98651 14.065 1.92468 14.0032C1.86286 13.9414 1.82812 13.8575 1.82812 13.7701C1.82812 13.6827 1.86286 13.5988 1.92468 13.537C1.98651 13.4752 2.07036 13.4404 2.1578 13.4404H2.7578C2.84523 13.4404 2.92908 13.4752 2.99091 13.537C3.05273 13.5988 3.08747 13.6827 3.08747 13.7701C3.08747 13.8575 3.05273 13.9414 2.99091 14.0032C2.92908 14.065 2.84523 14.0998 2.7578 14.0998Z" fill="black"/>
<path d="M4.21862 8.34173C4.16311 8.34108 4.10865 8.32652 4.06023 8.29938C4.0118 8.27223 3.97096 8.23338 3.94144 8.18636C3.91192 8.13935 3.89466 8.08568 3.89125 8.03027C3.88784 7.97486 3.89839 7.91948 3.92192 7.8692L4.37906 6.91316C4.39768 6.87405 4.42381 6.83899 4.45598 6.80999C4.48814 6.78098 4.52571 6.75859 4.56652 6.7441C4.60734 6.72961 4.65061 6.7233 4.69387 6.72554C4.73712 6.72777 4.77951 6.7385 4.81862 6.75712C4.85773 6.77573 4.89279 6.80187 4.9218 6.83403C4.9508 6.8662 4.97319 6.90376 4.98768 6.94458C5.00217 6.9854 5.00848 7.02867 5.00625 7.07192C5.00401 7.11518 4.99328 7.15757 4.97467 7.19668L4.51752 8.15492C4.49028 8.21099 4.44779 8.25825 4.39492 8.29129C4.34206 8.32433 4.28096 8.34181 4.21862 8.34173Z" fill="black"/>
</svg>
