<svg width="32" height="32" viewBox="0 0 32 32" fill="none" xmlns="http://www.w3.org/2000/svg">
<g clip-path="url(#clip0_783_7874)">
<mask id="mask0_783_7874" style="mask-type:luminance" maskUnits="userSpaceOnUse" x="0" y="0" width="32" height="32">
<path d="M31.6731 0H0.326172V32H31.6731V0Z" fill="white"/>
</mask>
<g mask="url(#mask0_783_7874)">
<path opacity="0.15" d="M16 0.25V31.75C20.0919 31.75 24.0162 30.0906 26.9096 27.1369C29.803 24.1832 31.4286 20.1771 31.4286 16C31.4286 11.8228 29.803 7.81673 26.9096 4.86307C24.0162 1.90937 20.0919 0.25 16 0.25Z" fill="black"/>
<path d="M11.0167 27.7859H10.1164L8.54172 26.1785L8.53982 21.2875H7.97995L6.41848 19.6935V17.75L5.43057 16.741L4.42894 16.7405L0.72168 12.956L1.06797 12.6025L4.63171 16.2405L5.63335 16.241L6.90828 17.5425V19.4865L8.18273 20.7875H9.02909L9.03151 25.9715L10.3192 27.2859H10.5269V26.4849L13.0625 23.8985V22.9115L14.3869 21.559V19.4235H13.0635L10.187 16.4875H7.65865L7.65917 15.027L9.74714 12.9065H11.1999L12.3391 11.7475V9.84901L10.7581 8.23548H9.50028L8.34684 9.41301L6.44886 7.47501L7.66113 6.2355V2.59351H8.15092V6.4425L7.14142 7.47501L8.34684 8.70601L9.2975 7.73548H10.9609L12.8289 9.64201V11.955L11.4021 13.4065H9.94939L8.14896 15.235L8.14844 15.9875H10.3902L13.2668 18.9235H14.8767V21.766L13.5523 23.1185V24.1055L11.0167 26.6919V27.7859Z" fill="black"/>
<path d="M24.1457 24.9117H23.2042L20.6691 22.3236V19.3416H17.6485L15.7549 17.4102V14.5303L17.1283 13.1292H21.45L25.3081 17.0782V20.572L24.1457 21.7588V24.9117ZM23.407 24.4117H23.6559V21.5518L24.8182 20.365V17.2847L21.2466 13.6292H17.3312L16.2447 14.7374V17.2032L17.8513 18.8416H21.1589V22.1165L23.407 24.4117Z" fill="black"/>
<path d="M27.8548 12.4595H25.3976L23.3899 10.4115H22.4054L21.1006 9.17105H17.6172V5.46853L21.6585 1.25903L22.0082 1.60903L18.107 5.67253V8.67105H21.2936L22.5979 9.91152H23.5932L25.6003 11.9595H27.6521L28.3711 11.2265H30.7828V11.7265H28.5739L27.8548 12.4595Z" fill="black"/>
<path d="M15.9996 32C12.8997 32 9.86942 31.0616 7.29192 29.3035C4.71444 27.5454 2.70554 25.0465 1.51925 22.1229C0.332963 19.1993 0.0225765 15.9823 0.62734 12.8785C1.2321 9.77487 2.72485 6.92393 4.91683 4.68629C7.1088 2.44865 9.90155 0.924807 12.9419 0.307443C15.9822 -0.309921 19.1336 0.0069325 21.9976 1.21793C24.8615 2.42893 27.3094 4.47969 29.0316 7.11087C30.7539 9.74207 31.673 12.8355 31.673 16C31.6684 20.242 30.0156 24.3089 27.0773 27.3084C24.1389 30.308 20.1551 31.9952 15.9996 32ZM15.9996 0.500007C12.9966 0.500007 10.061 1.40907 7.56405 3.11223C5.0671 4.81539 3.12097 7.23613 1.97176 10.0684C0.822544 12.9007 0.521859 16.0172 1.10772 19.0239C1.69359 22.0306 3.13969 24.7924 5.26316 26.9601C7.38661 29.1279 10.0921 30.6041 13.0374 31.2021C15.9828 31.8002 19.0357 31.4933 21.8102 30.3201C24.5846 29.1469 26.956 27.1603 28.6244 24.6113C30.2927 22.0623 31.1832 19.0656 31.1832 16C31.1787 11.8906 29.5775 7.9508 26.731 5.04501C23.8845 2.13922 20.0252 0.504686 15.9996 0.500007Z" fill="black"/>
</g>
</g>
<defs>
<clipPath id="clip0_783_7874">
<rect width="32" height="32" fill="white"/>
</clipPath>
</defs>
</svg>
