<svg width="21" height="20" viewBox="0 0 21 20" fill="none" xmlns="http://www.w3.org/2000/svg">
<g clip-path="url(#clip0_759_1453)">
<path d="M15.625 7.62463L8.625 14.6246L5.125 11.1246" stroke="#0D0D0D"/>
<path d="M4.12462 0V4.5M16.3746 0V4.5M0.250007 19.6246V2.62462C0.250007 2.41692 0.41693 2.25 0.624623 2.25H19.8746C20.0831 2.25 20.25 2.41692 20.25 2.62538V19.6254C20.25 19.8331 20.0831 20 19.8746 20H0.625392C0.57601 20.0003 0.527059 19.9908 0.481377 19.9721C0.435694 19.9533 0.394191 19.9257 0.359272 19.8907C0.324353 19.8558 0.296714 19.8143 0.277958 19.7686C0.259201 19.723 0.249701 19.674 0.250007 19.6246Z" stroke="#0D0D0D"/>
</g>
<defs>
<clipPath id="clip0_759_1453">
<rect width="20" height="20" fill="white" transform="translate(0.25)"/>
</clipPath>
</defs>
</svg>
