<svg width="32" height="32" viewBox="0 0 32 32" fill="none" xmlns="http://www.w3.org/2000/svg">
<g clip-path="url(#clip0_783_3083)">
<path d="M15.9996 11.507C19.1087 11.507 21.6291 8.98663 21.6291 5.87755C21.6291 2.76846 19.1087 0.248047 15.9996 0.248047C12.8905 0.248047 10.3701 2.76846 10.3701 5.87755C10.3701 8.98663 12.8905 11.507 15.9996 11.507Z" stroke="black" stroke-width="0.5" stroke-linecap="round" stroke-linejoin="round"/>
<path d="M13.375 8.34759V8.34609C13.4811 7.92074 13.7265 7.54313 14.0721 7.27338C14.4177 7.00364 14.8436 6.85727 15.282 6.85759H16.687C17.115 6.85743 17.5313 6.99702 17.8728 7.25513C18.2142 7.51324 18.462 7.87576 18.5785 8.28759M15.9505 3.40809C16.108 3.40875 16.2637 3.44041 16.409 3.50127C16.5542 3.56214 16.686 3.651 16.7969 3.76281C16.9077 3.87461 16.9955 4.00715 17.0551 4.15287C17.1148 4.29859 17.1452 4.45464 17.1445 4.61209C17.1438 4.76955 17.1122 4.92533 17.0513 5.07055C16.9905 5.21577 16.9016 5.34757 16.7898 5.45845C16.678 5.56932 16.5454 5.65709 16.3997 5.71674C16.254 5.77639 16.098 5.80675 15.9405 5.80609C15.6225 5.80477 15.3181 5.67717 15.0941 5.45138C14.8702 5.22558 14.7452 4.92009 14.7465 4.60209C14.7478 4.2841 14.8754 3.97965 15.1012 3.75573C15.327 3.53182 15.6325 3.40677 15.9505 3.40809Z" stroke="black" stroke-width="0.5" stroke-linecap="round" stroke-linejoin="round"/>
<path d="M5.8795 31.752C8.98859 31.752 11.509 29.2316 11.509 26.1225C11.509 23.0135 8.98859 20.493 5.8795 20.493C2.77041 20.493 0.25 23.0135 0.25 26.1225C0.25 29.2316 2.77041 31.752 5.8795 31.752Z" stroke="black" stroke-width="0.5" stroke-linecap="round" stroke-linejoin="round"/>
<path d="M20.271 30.3366C18.8984 30.8176 17.454 31.0618 15.9995 31.0586M23.0885 6.9801C24.9233 8.1672 26.4312 9.79527 27.4745 11.7155C28.5178 13.6357 29.063 15.7868 29.0605 17.9721C29.0618 18.5028 29.0292 19.033 28.963 19.5596M3.03601 19.5391C2.96977 19.0194 2.93721 18.496 2.93851 17.9721C2.93598 15.7868 3.48127 13.6357 4.52453 11.7155C5.56779 9.79527 7.07574 8.1672 8.91051 6.9801M15.897 31.0586C14.4627 31.0503 13.0398 30.8028 11.687 30.3261M21.357 10.6426C22.1215 13.0098 22.5002 15.4846 22.4785 17.9721C22.4785 18.6481 22.4535 19.3091 22.402 19.9591M9.49451 19.9286C9.4428 19.2777 9.41711 18.625 9.41751 17.9721C9.39436 15.4536 9.78367 12.9483 10.57 10.5556" stroke="black" stroke-width="0.5" stroke-linecap="round" stroke-linejoin="round"/>
<path d="M19.4885 28.969C18.4845 30.275 17.286 31.038 16.0005 31.059H15.898C14.628 31.038 13.4395 30.29 12.4405 29.0095M2.93945 17.972H29.0615M16.0005 13.05V31.0331M3.25545 28.592V28.5905C3.36157 28.1653 3.6069 27.7877 3.95238 27.518C4.29786 27.2483 4.72364 27.1018 5.16195 27.102H6.56695C6.99495 27.1019 7.4113 27.2415 7.75271 27.4996C8.09412 27.7577 8.34192 28.1202 8.45845 28.532M5.83045 23.6525C6.14845 23.6539 6.45289 23.7815 6.67681 24.0073C6.90073 24.2331 7.02578 24.5386 7.02445 24.8565C7.02313 25.1745 6.89553 25.479 6.66974 25.7029C6.44394 25.9268 6.13845 26.0519 5.82045 26.0505C5.50246 26.0492 5.19801 25.9216 4.9741 25.6958C4.75018 25.47 4.62513 25.1645 4.62645 24.8465C4.62778 24.5286 4.75537 24.2241 4.98117 24.0002C5.20696 23.7763 5.51246 23.6512 5.83045 23.6525Z" stroke="black" stroke-width="0.5" stroke-linecap="round" stroke-linejoin="round"/>
<path d="M26.1207 31.752C29.2298 31.752 31.7502 29.2316 31.7502 26.1225C31.7502 23.0135 29.2298 20.493 26.1207 20.493C23.0116 20.493 20.4912 23.0135 20.4912 26.1225C20.4912 29.2316 23.0116 31.752 26.1207 31.752Z" stroke="black" stroke-width="0.5" stroke-linecap="round" stroke-linejoin="round"/>
<path opacity="0.1" d="M20.1017 9.724C19.5766 10.2861 18.9416 10.7343 18.236 11.0408C17.5305 11.3472 16.7695 11.5053 16.0002 11.5053C15.231 11.5053 14.47 11.3472 13.7644 11.0408C13.0589 10.7343 12.4238 10.2861 11.8987 9.724C9.94561 10.6918 8.39925 12.3212 7.53492 14.3222C6.67059 16.3233 6.54437 18.5661 7.17873 20.6515C8.39262 20.9393 9.47632 21.6227 10.2593 22.5939C11.0423 23.5651 11.48 24.7692 11.5037 26.0165C12.8772 26.7867 14.4255 27.1912 16.0002 27.1912C17.5749 27.1912 19.1232 26.7867 20.4967 26.0165C20.5204 24.7692 20.9582 23.5651 21.7412 22.5939C22.5241 21.6227 23.6078 20.9393 24.8217 20.6515C25.4561 18.5661 25.3299 16.3233 24.4655 14.3222C23.6012 12.3212 22.0549 10.6918 20.1017 9.724Z" fill="black"/>
<path d="M23.4961 28.5921V28.5906C23.6022 28.1653 23.8475 27.7878 24.193 27.518C24.5385 27.2483 24.9643 27.1019 25.4026 27.1021H26.8076C27.2356 27.1019 27.6519 27.2415 27.9934 27.4996C28.3348 27.7577 28.5826 28.1203 28.6991 28.5321M26.0711 23.6526C26.2285 23.6533 26.3843 23.6849 26.5296 23.7458C26.6748 23.8066 26.8066 23.8955 26.9174 24.0073C27.0283 24.1191 27.1161 24.2517 27.1757 24.3974C27.2354 24.5431 27.2657 24.6991 27.2651 24.8566C27.2644 25.0141 27.2328 25.1698 27.1719 25.3151C27.111 25.4603 27.0222 25.5921 26.9104 25.703C26.7986 25.8138 26.666 25.9016 26.5203 25.9612C26.3746 26.0209 26.2185 26.0513 26.0611 26.0506C25.7431 26.0493 25.4387 25.9217 25.2147 25.6959C24.9908 25.4701 24.8658 25.1646 24.8671 24.8466C24.8684 24.5286 24.996 24.2242 25.2218 24.0002C25.4476 23.7763 25.7531 23.6513 26.0711 23.6526Z" stroke="black" stroke-width="0.5" stroke-linecap="round" stroke-linejoin="round"/>
</g>
<defs>
<clipPath id="clip0_783_3083">
<rect width="32" height="32" fill="white"/>
</clipPath>
</defs>
</svg>
