<svg width="20" height="20" viewBox="0 0 20 20" fill="none" xmlns="http://www.w3.org/2000/svg">
<g clip-path="url(#clip0_209_861)">
<path d="M15.375 7.625L8.375 14.625L4.875 11.125" stroke="#0D0D0D"/>
<path d="M3.87462 0V4.5M16.1246 0V4.5M7.18238e-06 19.6246V2.62462C7.18238e-06 2.41692 0.16693 2.25 0.374623 2.25H19.6246C19.8331 2.25 20 2.41692 20 2.62538V19.6254C20 19.8331 19.8331 20 19.6246 20H0.375392C0.32601 20.0003 0.277059 19.9908 0.231377 19.9721C0.185694 19.9533 0.144191 19.9257 0.109272 19.8907C0.0743528 19.8558 0.0467138 19.8143 0.0279575 19.7686C0.00920119 19.723 -0.000299229 19.674 7.18238e-06 19.6246Z" stroke="#0D0D0D"/>
</g>
<defs>
<clipPath id="clip0_209_861">
<rect width="20" height="20" fill="white"/>
</clipPath>
</defs>
</svg>
