<svg width="24" height="24" viewBox="0 0 24 24" fill="none" xmlns="http://www.w3.org/2000/svg">
<g clip-path="url(#clip0_391_4498)">
<path d="M1.60153 6.60977H6.12681C6.31402 6.60977 6.49356 6.5354 6.62594 6.40302C6.75832 6.27065 6.83269 6.0911 6.83269 5.90389V1.41194C6.83269 1.22473 6.75832 1.04518 6.62594 0.912803C6.49356 0.780424 6.31402 0.706055 6.12681 0.706055H1.60153C1.41432 0.706055 1.23478 0.780424 1.1024 0.912803C0.970022 1.04518 0.895653 1.22473 0.895653 1.41194V5.90389C0.895653 6.0911 0.970022 6.27065 1.1024 6.40302C1.23478 6.5354 1.41432 6.60977 1.60153 6.60977ZM2.30742 2.11782H5.42092V5.19801H2.30742V2.11782ZM6.6277 9.25683C6.49581 9.12397 6.31654 9.04894 6.12933 9.04825C5.94212 9.04756 5.76231 9.12127 5.62944 9.25316L3.86417 11.0056L2.0989 9.25316C1.96593 9.12179 1.78628 9.04852 1.59936 9.04943C1.41244 9.05034 1.23352 9.12535 1.10183 9.25801C0.970145 9.39067 0.896452 9.57014 0.896917 9.75706C0.897382 9.94398 0.971967 10.1231 1.10431 10.2551L2.86224 12L1.10431 13.745C1.03827 13.8102 0.985744 13.8879 0.949748 13.9734C0.913752 14.059 0.894991 14.1508 0.89454 14.2437C0.894088 14.3365 0.911954 14.4285 0.947115 14.5145C0.982277 14.6004 1.03404 14.6785 1.09945 14.7444C1.16485 14.8103 1.24261 14.8626 1.32828 14.8984C1.41394 14.9342 1.50582 14.9528 1.59866 14.953C1.6915 14.9532 1.78347 14.9351 1.86931 14.8998C1.95515 14.8644 2.03317 14.8125 2.0989 14.7469L3.86417 12.9945L5.62944 14.7469C5.76241 14.8783 5.94206 14.9515 6.12898 14.9506C6.3159 14.9497 6.49482 14.8747 6.62651 14.7421C6.7582 14.6094 6.83189 14.4299 6.83142 14.243C6.83096 14.0561 6.75637 13.877 6.62403 13.745L4.8661 12L6.62403 10.2551C6.75689 10.1232 6.83192 9.94393 6.83261 9.75672C6.8333 9.56951 6.75959 9.3897 6.6277 9.25683ZM6.12666 17.3906H1.60153C1.50884 17.3906 1.41705 17.4088 1.33141 17.4443C1.24576 17.4798 1.16795 17.5318 1.1024 17.5973C1.03685 17.6629 0.984859 17.7407 0.949385 17.8263C0.913911 17.912 0.895653 18.0038 0.895653 18.0965V22.5884C0.895653 22.7756 0.970022 22.9552 1.1024 23.0875C1.23478 23.2199 1.41432 23.2943 1.60153 23.2943H6.12681C6.31402 23.2943 6.49356 23.2199 6.62594 23.0875C6.75832 22.9552 6.83269 22.7756 6.83269 22.5884V18.0965C6.83269 17.9092 6.75832 17.7297 6.62594 17.5973C6.49356 17.4649 6.31402 17.3906 6.12681 17.3906H6.12666ZM5.42078 21.8825H2.30728V18.8023H5.42078V21.8825ZM22.0728 4.3638C23.0019 4.33669 23.0091 2.98168 22.0728 2.95203H9.14361C8.21452 2.97914 8.20732 4.33415 9.14361 4.3638H22.0728ZM9.46676 11.2943C8.53768 11.3214 8.53048 12.6764 9.46676 12.7061H22.396C23.3251 12.6789 23.3323 11.3239 22.396 11.2943H9.46676ZM22.396 19.6366H9.46662C8.53754 19.6637 8.53034 21.0187 9.46662 21.0483H22.3958C23.3249 21.0212 23.3321 19.6662 22.3958 19.6366H22.396Z" fill="black"/>
</g>
<defs>
<clipPath id="clip0_391_4498">
<rect width="24" height="24" fill="white"/>
</clipPath>
</defs>
</svg>
