<svg width="24" height="24" viewBox="0 0 24 24" fill="none" xmlns="http://www.w3.org/2000/svg">
<g clip-path="url(#clip0_391_4515)">
<path d="M7.10484 9.79359C7.01766 9.70641 6.89672 9.65625 6.77344 9.65625C6.65016 9.65625 6.52927 9.70636 6.44203 9.79359C6.35484 9.88078 6.30469 10.0017 6.30469 10.125C6.30469 10.2483 6.35484 10.3692 6.44203 10.4564C6.52922 10.5435 6.65016 10.5938 6.77344 10.5938C6.89672 10.5938 7.01766 10.5436 7.10484 10.4564C7.19203 10.3692 7.24219 10.2483 7.24219 10.125C7.24219 10.0017 7.19203 9.88078 7.10484 9.79359Z" fill="black"/>
<path d="M22.5935 0H3.93734C3.16194 0 2.5311 0.630841 2.5311 1.40624V9.18746C2.5311 9.96287 3.16194 10.5937 3.93734 10.5937H4.78109C5.03998 10.5937 5.24984 10.3838 5.24984 10.125C5.24984 9.86612 5.03998 9.65621 4.78109 9.65621H3.93734C3.67888 9.65621 3.4686 9.44593 3.4686 9.18746V1.40624C3.4686 1.14778 3.67888 0.937496 3.93734 0.937496H22.5935C22.852 0.937496 23.0623 1.14778 23.0623 1.40624V9.18746C23.0623 9.44593 22.852 9.65621 22.5935 9.65621H19.4582C19.3339 9.65622 19.2147 9.70561 19.1268 9.79351L17.5832 11.337L16.0397 9.79351C15.9518 9.70561 15.8325 9.65622 15.7082 9.65621H12.0527C12.0181 9.56706 11.9789 9.47977 11.9352 9.3947C11.5995 8.74262 11.0282 8.26605 10.3266 8.05272L9.6489 7.84666C9.41031 7.774 9.15662 7.90113 9.07178 8.13564L8.00687 11.0789C7.71202 11.8946 7.12846 12.574 6.36658 12.9885L5.36693 13.5329C5.12126 13.2346 4.74931 13.0442 4.33367 13.0442H1.33837C0.600373 13.0442 1.09771e-08 13.6446 1.09771e-08 14.3826V22.6614C-9.37387e-05 23.3995 0.600326 23.9999 1.33832 23.9999H4.33362C4.80022 23.9999 5.21154 23.7598 5.45117 23.3967L5.92948 23.5843C6.62968 23.8596 7.37544 24.0006 8.12781 24H14.4525C15.4015 24 16.1735 23.228 16.1735 22.279C16.1738 21.976 16.0935 21.6784 15.941 21.4167C16.6391 21.1973 17.147 20.5441 17.147 19.7745C17.1473 19.4639 17.063 19.1591 16.9032 18.8928C17.5717 18.6563 18.052 18.0183 18.052 17.2699C18.052 16.4904 17.5308 15.8306 16.8188 15.6198C16.9684 15.3599 17.0471 15.0652 17.0468 14.7653C17.0468 13.8164 16.2748 13.0443 15.3258 13.0443H11.567L12.0927 11.4836C12.1895 11.1971 12.2373 10.8962 12.2342 10.5938H15.5141L17.2518 12.3315C17.3433 12.423 17.4633 12.4687 17.5832 12.4687C17.7032 12.4687 17.8232 12.423 17.9147 12.3315L19.6524 10.5937H22.5935C23.3689 10.5937 23.9998 9.96287 23.9998 9.18746V1.40624C23.9998 0.630841 23.3689 0 22.5935 0ZM4.73454 22.6615C4.7345 22.8826 4.55469 23.0624 4.33362 23.0624H1.33832C1.11726 23.0624 0.937449 22.8826 0.937449 22.6615V14.3826C0.937449 14.1616 1.11726 13.9817 1.33832 13.9817H2.36723V19.753C2.36723 20.0118 2.57708 20.2217 2.83597 20.2217C3.09486 20.2217 3.30472 20.0118 3.30472 19.753V13.9817H4.33362C4.5087 13.9817 4.65753 14.0947 4.71204 14.2515C4.71593 14.2742 4.72156 14.2967 4.72897 14.3189C4.73229 14.3398 4.73454 14.3609 4.73454 14.3826V22.6615ZM15.3259 13.9817V13.9817C15.7579 13.9817 16.1094 14.3332 16.1094 14.7652C16.1094 15.1973 15.7579 15.5488 15.3259 15.5488H12.7829C12.524 15.5488 12.3141 15.7587 12.3141 16.0175C12.3141 16.2764 12.524 16.4863 12.7829 16.4863L16.331 16.4864C16.763 16.4864 17.1145 16.8379 17.1145 17.2699C17.1145 17.7019 16.763 18.0535 16.331 18.0535H12.7829C12.524 18.0535 12.3141 18.2634 12.3141 18.5222C12.3141 18.7811 12.524 18.991 12.7829 18.991H15.426C15.8581 18.991 16.2095 19.3424 16.2095 19.7745C16.2095 20.2065 15.8581 20.558 15.426 20.558H12.7829C12.524 20.558 12.3141 20.7679 12.3141 21.0267C12.3141 21.2856 12.524 21.4955 12.7829 21.4955H14.4526C14.8846 21.4955 15.2361 21.847 15.2361 22.279C15.2361 22.7111 14.8846 23.0625 14.4526 23.0625H8.12781C7.48999 23.0625 6.86552 22.9444 6.27176 22.7116L5.67199 22.4764V14.4342L6.81485 13.8119C7.77798 13.2879 8.51566 12.429 8.88835 11.3978L9.8019 8.87307L10.0539 8.94967C10.5109 9.08865 10.883 9.39906 11.1016 9.82374C11.3203 10.2484 11.3567 10.7317 11.2042 11.1843L10.4703 13.3633C10.4465 13.4338 10.4399 13.509 10.451 13.5825C10.462 13.6561 10.4904 13.726 10.5338 13.7864C10.5772 13.8468 10.6344 13.8961 10.7006 13.93C10.7668 13.964 10.8401 13.9817 10.9145 13.9817H15.3259Z" fill="black"/>
<path d="M21.8529 4.54563C21.7641 4.27263 21.5325 4.0774 21.2483 4.03619L20.4192 3.91596L20.0482 3.16479C19.9211 2.9074 19.6639 2.74756 19.3768 2.74756H19.3766C19.0895 2.74765 18.8322 2.90764 18.7053 3.16512L18.3347 3.91652L17.5055 4.03723C17.2214 4.07862 16.9899 4.27394 16.9012 4.54704C16.8126 4.82008 16.8853 5.11422 17.0909 5.31461L17.691 5.89923L17.5496 6.72503C17.5011 7.00806 17.6153 7.2886 17.8477 7.45735C17.9752 7.55053 18.129 7.60084 18.287 7.60102C18.4061 7.60102 18.5258 7.57229 18.6364 7.51412L19.3779 7.12403L20.1196 7.5137C20.3737 7.6472 20.6759 7.62531 20.9081 7.45646C21.1404 7.28762 21.2544 7.00698 21.2058 6.724L21.064 5.8983L21.6638 5.3133C21.8692 5.11277 21.9417 4.81863 21.8529 4.54563ZM20.3382 5.29642C20.2513 5.38118 20.1863 5.48581 20.1488 5.60129C20.1113 5.71677 20.1025 5.83963 20.1231 5.95928L20.217 6.50593L19.7258 6.24784C19.6183 6.19143 19.4987 6.16197 19.3774 6.16202C19.256 6.16207 19.1364 6.19162 19.029 6.24812L18.5381 6.5064L18.6317 5.9597C18.6522 5.84003 18.6433 5.71716 18.6058 5.60168C18.5682 5.48621 18.5032 5.38161 18.4162 5.29689L18.0188 4.9098L18.5678 4.82988C18.6879 4.81243 18.802 4.76601 18.9002 4.69462C18.9984 4.62324 19.0778 4.52904 19.1314 4.42015L19.3768 3.92266L19.6225 4.42001C19.6762 4.52886 19.7556 4.62301 19.8539 4.69434C19.9521 4.76567 20.0662 4.81204 20.1864 4.82946L20.7353 4.90905L20.3382 5.29642ZM15.8898 4.54563C15.801 4.27263 15.5694 4.07744 15.2852 4.03619L14.4561 3.91596L14.0851 3.16479C13.958 2.9074 13.7008 2.74756 13.4137 2.74756H13.4135C13.1264 2.74765 12.8691 2.90764 12.7421 3.16517L12.3716 3.91652L11.5425 4.03723C11.2584 4.07862 11.0268 4.27394 10.9382 4.54704C10.8495 4.82008 10.9222 5.11422 11.1279 5.31461L11.7279 5.89923L11.5865 6.72503C11.5381 7.00806 11.6523 7.28865 11.8846 7.45735C12.0121 7.55053 12.1659 7.60084 12.3239 7.60102C12.4429 7.60102 12.5626 7.57229 12.6732 7.51412L13.4147 7.12403L14.1564 7.5137C14.4106 7.6472 14.7127 7.62531 14.945 7.45646C15.1772 7.28762 15.2913 7.00698 15.2427 6.724L15.1008 5.8983L15.7007 5.3133C15.9061 5.11277 15.9786 4.81868 15.8898 4.54563ZM14.3752 5.29642C14.2882 5.38118 14.2232 5.48581 14.1857 5.60129C14.1483 5.71677 14.1394 5.83963 14.16 5.95928L14.2539 6.50593L13.7627 6.24789C13.6552 6.19145 13.5356 6.16198 13.4143 6.16202C13.2929 6.16206 13.1733 6.19161 13.0659 6.24812L12.575 6.5064L12.6686 5.9597C12.6891 5.84003 12.6802 5.71716 12.6427 5.60168C12.6051 5.48621 12.54 5.38161 12.4531 5.29689L12.0557 4.9098L12.6046 4.82988C12.7248 4.81241 12.8389 4.76598 12.9371 4.69459C13.0353 4.6232 13.1147 4.529 13.1684 4.4201L13.4137 3.92262L13.6593 4.41991C13.713 4.52879 13.7924 4.62297 13.8907 4.69431C13.9889 4.76566 14.1031 4.81204 14.2232 4.82946L14.7722 4.90905L14.3752 5.29642ZM9.92678 4.54563C9.83795 4.27263 9.6063 4.0774 9.32219 4.03619L8.49307 3.91596L8.12206 3.16479C7.99493 2.9074 7.73773 2.74756 7.45067 2.74756H7.45048C7.16337 2.74765 6.90608 2.90764 6.77909 3.16517L6.40855 3.91652L5.57942 4.03723C5.29527 4.07862 5.06375 4.27399 4.97507 4.54708C4.88643 4.82013 4.95913 5.11427 5.16477 5.31461L5.76486 5.89923L5.62344 6.72503C5.57497 7.00806 5.68921 7.28865 5.92152 7.45735C6.04904 7.55053 6.20284 7.60084 6.36078 7.60102C6.47984 7.60102 6.59951 7.57229 6.71009 7.51412L7.4516 7.12403L8.19331 7.5137C8.44746 7.6472 8.74962 7.62531 8.98188 7.45646C9.2141 7.28762 9.32814 7.00698 9.27954 6.724L9.13769 5.8983L9.73755 5.3133C9.94309 5.11277 10.0156 4.81868 9.92678 4.54563ZM8.41212 5.29642C8.32519 5.38118 8.26019 5.48581 8.22271 5.60129C8.18522 5.71677 8.17639 5.83963 8.19696 5.95928L8.29085 6.50593L7.79965 6.24789C7.69219 6.19145 7.57261 6.16198 7.45122 6.16202C7.32984 6.16206 7.21028 6.19161 7.10286 6.24812L6.61194 6.5064L6.70559 5.95956C6.72606 5.8399 6.71713 5.71707 6.67957 5.60163C6.64202 5.48619 6.57696 5.38161 6.49001 5.29689L6.09266 4.9098L6.64156 4.82988C6.76172 4.81241 6.87582 4.76598 6.97403 4.69459C7.07225 4.6232 7.15163 4.529 7.20532 4.4201L7.45067 3.92262L7.69624 4.41991C7.74999 4.52879 7.82941 4.62297 7.92765 4.69431C8.0259 4.76566 8.14003 4.81204 8.2602 4.82946L8.80919 4.90905L8.41212 5.29642ZM2.83594 20.9698C2.57705 20.9698 2.36719 21.1797 2.36719 21.4385V21.4458C2.36719 21.7047 2.57705 21.9146 2.83594 21.9146C3.09483 21.9146 3.30468 21.7047 3.30468 21.4458V21.4385C3.30468 21.1797 3.09483 20.9698 2.83594 20.9698Z" fill="black"/>
</g>
<defs>
<clipPath id="clip0_391_4515">
<rect width="24" height="24" fill="white"/>
</clipPath>
</defs>
</svg>
