<svg width="24" height="24" viewBox="0 0 24 24" fill="none" xmlns="http://www.w3.org/2000/svg">
<path fill-rule="evenodd" clip-rule="evenodd" d="M20.6527 9.68794H4.66021L20.0212 5.23809C20.1405 5.20341 20.2412 5.12282 20.3013 5.01398C20.331 4.96008 20.3498 4.90085 20.3566 4.83967C20.3634 4.77849 20.3581 4.71657 20.341 4.65745L19.5372 1.8825C19.216 0.774188 18.184 0 17.0275 0C16.7838 0 16.541 0.0345938 16.3056 0.102703L1.88325 4.28067C1.21621 4.4738 0.663371 4.91728 0.326293 5.52905C-0.0106448 6.14077 -0.0897229 6.8452 0.103449 7.51209L0.888793 10.2232V21.3913C0.888746 22.8298 2.05903 24 3.49729 24H9.12998C9.38892 24 9.59873 23.7901 9.59873 23.5312C9.59873 23.2724 9.38892 23.0625 9.12998 23.0625H3.49748C2.57592 23.0625 1.82629 22.3129 1.82629 21.3913V15.0123H20.1839V21.3913C20.1839 22.3129 19.4343 23.0625 18.5127 23.0625H12.88C12.6212 23.0625 12.4112 23.2724 12.4112 23.5312C12.4112 23.7901 12.6212 24 12.88 24H18.5127C19.9512 24 21.1214 22.8298 21.1214 21.3913V10.1567C21.1214 9.89775 20.9115 9.68794 20.6527 9.68794ZM12.3871 14.0748L14.3787 10.6254H16.9691L14.9776 14.0748H12.3871ZM8.71396 14.0748L10.7056 10.6254H13.296L11.3046 14.0748H8.71396ZM5.04107 14.0748L7.03251 10.6254H9.6231L7.63148 14.0748H5.04107ZM6.78389 8.00648L3.44878 4.80323L5.94764 4.07939C5.96561 4.10554 5.98622 4.12977 6.00914 4.15172L9.34424 7.35497L6.84539 8.07881C6.8274 8.05267 6.80679 8.02844 6.78389 8.00648ZM13.0651 2.10773L16.4002 5.31094L13.9013 6.03473C13.8834 6.00855 13.8628 5.98431 13.8398 5.96241L10.5047 2.75916L13.0035 2.03536C13.0215 2.06151 13.0422 2.08574 13.0651 2.10769L13.0651 2.10773ZM9.53704 3.12984L12.8721 6.33291L10.3733 7.05689C10.3553 7.03071 10.3347 7.00647 10.3117 6.98456L6.97668 3.78131L9.47554 3.05752C9.49326 3.08297 9.51379 3.1073 9.53704 3.12984ZM16.5665 1.00322C16.7169 0.959625 16.8721 0.9375 17.0275 0.9375C17.7693 0.9375 18.4308 1.43334 18.6367 2.14345L19.3101 4.46798L17.4295 5.01267C17.4114 4.98658 17.3907 4.96237 17.3677 4.94039L14.0328 1.73728L16.5665 1.00322ZM1.1475 5.98134C1.36359 5.58891 1.7175 5.30475 2.14415 5.18119L2.41954 5.10131C2.4376 5.12741 2.45822 5.15164 2.48109 5.17364L5.81615 8.37689L1.67742 9.57586L1.00396 7.25133C0.880355 6.82491 0.931449 6.37392 1.1475 5.98134ZM1.82625 10.6254H5.95003L3.95854 14.0748H1.82629L1.82625 10.6254ZM16.0602 14.0748L18.0516 10.6254H20.1839V14.0748H16.0602Z" fill="black"/>
<path fill-rule="evenodd" clip-rule="evenodd" d="M14.2472 18.9899C14.2472 18.9076 14.2255 18.8268 14.1844 18.7555C14.1432 18.6843 14.084 18.6251 14.0128 18.584L9.89453 16.2063C9.82326 16.1652 9.74243 16.1436 9.66016 16.1436C9.57788 16.1436 9.49705 16.1652 9.42578 16.2063C9.35451 16.2474 9.29533 16.3066 9.25419 16.3779C9.21305 16.4491 9.19139 16.53 9.19141 16.6123V21.3675C9.19142 21.4498 9.21308 21.5306 9.25423 21.6018C9.29537 21.673 9.35454 21.7322 9.42578 21.7733C9.49701 21.8145 9.57786 21.8362 9.66016 21.8362C9.74246 21.8362 9.8233 21.8145 9.89453 21.7733L14.0128 19.3958C14.084 19.3547 14.1432 19.2955 14.1844 19.2243C14.2255 19.153 14.2472 19.0722 14.2472 18.9899ZM10.1289 20.5557V17.4241L12.8409 18.9898L10.1289 20.5557ZM11.0058 23.0627C10.7477 23.0627 10.537 23.2733 10.537 23.5315C10.537 23.7897 10.7477 24.0002 11.0058 24.0002C11.2642 24.0002 11.4745 23.7897 11.4745 23.5315C11.4745 23.2733 11.2642 23.0627 11.0058 23.0627Z" fill="black"/>
</svg>
